<?xml version="1.0" encoding="UTF-8" standalone="no"?>
<svg
   xmlns:osb="http://www.openswatchbook.org/uri/2009/osb"
   xmlns:dc="http://purl.org/dc/elements/1.1/"
   xmlns:cc="http://creativecommons.org/ns#"
   xmlns:rdf="http://www.w3.org/1999/02/22-rdf-syntax-ns#"
   xmlns:svg="http://www.w3.org/2000/svg"
   xmlns="http://www.w3.org/2000/svg"
   xmlns:sodipodi="http://sodipodi.sourceforge.net/DTD/sodipodi-0.dtd"
   xmlns:inkscape="http://www.inkscape.org/namespaces/inkscape"
   width="246.25"
   height="60.92725"
   viewBox="0 0 246.24999 60.927249"
   version="1.1"
   id="svg2"
   inkscape:version="1.0.2-2 (e86c870879, 2021-01-15)"
   sodipodi:docname="logo.svg">
  <metadata
     id="metadata16">
    <rdf:RDF>
      <cc:Work
         rdf:about="">
        <dc:format>image/svg+xml</dc:format>
        <dc:type
           rdf:resource="http://purl.org/dc/dcmitype/StillImage" />
        <dc:title>logo</dc:title>
      </cc:Work>
    </rdf:RDF>
  </metadata>
  <sodipodi:namedview
     pagecolor="#ffffff"
     bordercolor="#666666"
     borderopacity="1"
     objecttolerance="10"
     gridtolerance="10"
     guidetolerance="10"
     inkscape:pageopacity="0"
     inkscape:pageshadow="2"
     inkscape:window-width="1920"
     inkscape:window-height="1017"
     id="namedview14"
     showgrid="false"
     inkscape:zoom="16"
     inkscape:cx="37.060723"
     inkscape:cy="40.595879"
     inkscape:window-x="-8"
     inkscape:window-y="-8"
     inkscape:window-maximized="1"
     inkscape:current-layer="layer3"
     units="px"
     showguides="true"
     inkscape:guide-bbox="true"
     fit-margin-top="3.5"
     fit-margin-left="0.2"
     fit-margin-right="0.2"
     fit-margin-bottom="1"
     inkscape:document-rotation="0">
    <sodipodi:guide
       position="20.840036,19.546297"
       orientation="0,1"
       id="guide4165" />
    <sodipodi:guide
       position="115.99336,1.2282701"
       orientation="0,1"
       id="guide4187" />
    <sodipodi:guide
       position="104.68549,17.291798"
       orientation="0,1"
       id="guide4189" />
    <sodipodi:guide
       position="125.71602,21.307679"
       orientation="0,1"
       id="guide4191" />
    <sodipodi:guide
       position="123.91944,57.239249"
       orientation="0,1"
       id="guide4193" />
    <sodipodi:guide
       position="59.250128,7.2909331"
       orientation="1,0"
       id="guide4195" />
    <sodipodi:guide
       position="238.29796,3.2556321"
       orientation="1,0"
       id="guide4197" />
  </sodipodi:namedview>
  <!-- Generator: Sketch 51.3 (57544) - http://www.bohemiancoding.com/sketch -->
  <title
     id="title4">logo</title>
  <desc
     id="desc6">...</desc>
  <defs
     id="defs8">
    <linearGradient
       id="linearGradient3983"
       osb:paint="solid">
      <stop
         style="stop-color:#535353;stop-opacity:1;"
         offset="0"
         id="stop3981" />
    </linearGradient>
    <filter
       inkscape:collect="always"
       style="color-interpolation-filters:sRGB"
       id="filter2027"
       x="-0.016821183"
       width="1.0336424"
       y="-0.016931644"
       height="1.0338633">
      <feGaussianBlur
         inkscape:collect="always"
         stdDeviation="0.39688148"
         id="feGaussianBlur2029" />
    </filter>
  </defs>
  <g
     inkscape:groupmode="layer"
     id="layer5"
     inkscape:label="bg"
     style="display:inline">
    <path
       style="opacity:0.551282;mix-blend-mode:normal;fill:#535353;stroke-width:0.31178;filter:url(#filter2027)"
       d="M 23.84215,3.6879995 C 15.211085,5.0491756 7.2556259,10.809223 3.1340881,18.681399 c -4.2148935,8.050484 -4.2395567,17.882056 -0.064749,25.809366 3.0596775,5.809848 7.7990119,10.259675 13.7223749,12.884128 4.417649,1.957321 6.145661,2.290746 11.800016,2.276831 4.562528,-0.01186 5.181267,-0.08104 7.683295,-0.866281 9.862106,-3.095316 16.564885,-9.870764 19.603626,-19.816166 0.633148,-2.072209 0.72189,-3.027705 0.699833,-7.535014 -0.02296,-4.691286 -0.10342,-5.405151 -0.882533,-7.830357 C 53.02093,15.277152 46.98257,8.7190953 38.887325,5.3486227 34.793544,3.644165 28.514592,2.9511203 23.84215,3.6879995 Z"
       id="path63" />
  </g>
  <g
     inkscape:groupmode="layer"
     id="layer8"
     inkscape:label="head bg"
     style="display:inline;mix-blend-mode:normal">
    <path
       style="opacity:1;fill:#535353;fill-opacity:1;stroke:#535353;stroke-width:0.03125;stroke-linejoin:miter;stroke-miterlimit:4;stroke-dasharray:none;stroke-dashoffset:0;stroke-opacity:1"
       d="m 27.609424,56.242232 c 2.353592,0 -3.915143,-1.06684 -6.329162,-1.778228 -1.045486,-0.308094 -1.884255,-0.290247 -3.567151,-1.263179 l -0.786938,-0.454952 0.514779,0.0052 c 0.469231,0.0047 1.663374,0.170103 2.540858,0.529175 0.342313,0.140077 0.640235,0.254685 0.66205,0.254685 0.04499,0 -0.07396,-0.04811 -0.587738,-3.726563 -0.204053,-1.460937 -0.327743,-2.745321 -0.351257,-2.978319 -0.02351,-0.232997 -0.06569,-0.437811 -0.09374,-0.455142 -0.02804,-0.01733 -0.04286,-0.04358 -0.271642,-0.02014 l -0.415968,0.04262 0.04153,0.381275 c 0.04225,0.387846 0.701389,5.148028 0.762673,5.508063 l 0.03355,0.197101 -0.387028,-0.120457 c -0.212865,-0.06625 -0.625128,-0.161977 -0.916139,-0.212725 -1.674715,-0.292047 -3.042916,0.250123 -4.171748,1.53273 -0.166395,0.189063 -0.31447,0.34375 -0.329055,0.34375 -0.01458,0 -0.158703,-0.379687 -0.320263,-0.84375 -0.670399,-1.925646 -1.29553,-3.213687 -2.284118,-4.207851 -0.418451,-0.420819 -0.746992,-0.711158 -1.105199,-0.882824 -0.2545915,-0.122009 -0.5247335,-0.221836 -0.6003158,-0.221836 -0.1646648,0 -0.1868575,-0.08915 -0.2411555,-0.96875 C 9.3001525,45.183452 8.9958203,43.637351 8.6586616,42.608096 8.3617104,41.701585 8.1202426,41.167048 7.5015197,40.378685 6.2790467,38.821038 5.5679144,37.473053 5.6287386,36.640523 5.6698943,36.077205 5.8990591,35.79213 6.8051777,34.817945 l 0.9939511,-1.068615 0.3883628,0.106308 c 1.1765984,0.322074 1.9473984,0.969867 2.4020804,2.226172 0.03957,0.109323 0.107533,0.05837 0.541939,-0.40625 1.023251,-1.094429 1.119599,-1.495829 1.050786,-2.246739 -0.02103,-0.229528 -0.05745,-0.484808 -0.08092,-0.567291 -0.04226,-0.148502 -0.03937,-0.149547 0.295186,-0.106915 0.790411,0.100723 1.500701,0.490852 2.563534,1.877678 0.475348,0.620253 0.595824,0.906145 0.627316,0.847401 0.143631,-0.267919 0.58424,-1.700934 0.688748,-2.240054 0.19441,-1.002888 0.03782,-2.096245 -0.212737,-2.684442 -0.04165,-0.09778 -0.157163,-0.22444 0.131839,-0.07217 0.638883,0.143487 1.733601,0.423685 3.287255,1.662152 0.544659,0.434164 0.997155,0.780332 1.005548,0.769261 0.0084,-0.01107 0.0943,-0.217003 0.190911,-0.457628 0.402613,-1.0028 0.115349,-2.206802 -0.555686,-3.764357 -0.10029,-0.232782 -0.100205,-0.233162 0.06056,-0.273512 0.235646,-0.05914 0.864346,8.45e-4 1.167952,0.152412 0.145983,0.07288 0.539527,0.341952 0.874541,0.597943 0.501332,0.383078 1.405834,0.959389 1.50573,0.959389 0.08555,0 0.25,-0.844595 0.243392,-1.25 -0.01131,-0.693773 -0.261628,-1.281224 -0.8431,-2.618018 -0.02096,-0.04818 0.09792,-0.04417 0.395051,0.01333 0.551189,0.106665 1.671666,0.10538 2.277122,-0.0026 0.856009,-0.152678 1.929159,-0.477079 1.929159,-0.583161 0,-0.08193 0.08369,-0.09046 0.575181,-0.05862 1.487251,0.09635 2.580251,1.104554 3.834241,3.96796 0.203979,0.465773 0.423494,1.002212 0.397099,1.024987 -0.797543,0.688119 -1.247661,1.013434 -1.828151,1.134079 -0.17987,0.03738 -0.34335,0.09436 -0.363289,0.126628 -0.04857,0.07858 0.01165,0.374336 0.08925,0.374336 0.03372,0 0.281896,-0.05952 0.551496,-0.132265 0.50671,-0.136725 0.883514,-0.415284 1.352237,-0.773282 l 0.380931,-0.290945 0.339846,0.690238 c 0.186916,0.379632 0.440379,0.908608 0.534608,1.051372 l 0.171325,0.25957 -0.140075,0.113702 c -0.453447,0.368072 -0.873653,0.630753 -1.306408,0.732775 -0.256563,0.06048 -0.486009,0.107664 -0.486009,0.147812 0,0.117561 0.110055,0.36909 0.154551,0.367921 0.02242,-5.62e-4 0.237636,-0.05243 0.478261,-0.115211 0.510943,-0.133301 0.618921,-0.232378 1.022373,-0.54034 0.160165,-0.122256 0.477017,-0.370989 0.505906,-0.362909 0.03571,0.01 0.166683,0.161694 0.23235,0.234375 0.108471,0.120058 0.414776,0.476331 0.699489,0.776749 l 0.658398,0.694717 -0.363945,0.289568 c -0.463098,0.368458 -0.605078,0.613085 -1.110596,0.743837 -0.220983,0.05716 -0.524049,0.124459 -0.620963,0.123518 -0.01539,-1.49e-4 -0.02805,0.03836 0.01458,0.180647 0.07366,0.245872 0.08706,0.256646 0.269957,0.217189 0.770671,-0.166255 1.027533,-0.390404 1.654293,-0.910217 l 0.450126,-0.373319 0.545968,0.402449 c 0.452999,0.333919 1.061209,0.661793 2.527908,1.651256 0.199925,0.134873 -0.692806,1.303997 -1.61782,1.922541 -1.111404,0.743181 -2.609051,1.005717 -3.68834,1.155148 l -0.28125,0.03894 0.6875,-0.33815 c 0.23852,-0.117318 0.48155,-0.231454 0.67862,-0.315887 0.19707,-0.08443 0.288476,-0.179681 0.359375,-0.194303 0.02876,-0.0059 -2.027402,-1.287397 -2.457658,-1.511971 -0.05314,-0.02774 -0.288391,0.374323 -0.214668,0.403675 0.167114,0.06654 0.431448,0.31796 0.892286,0.588283 l 0.837887,0.491496 -0.213937,0.09177 c -0.643891,0.276202 -2.088969,1.043361 -2.386646,1.085116 -0.03868,0.0054 0.355986,0.313279 0.882812,0.717722 0.526826,0.404444 1.118429,0.857784 1.161896,0.897615 0.06135,0.05622 -0.186777,0.196369 -1.109375,0.626588 -0.653624,0.304792 -1.246998,0.513686 -1.246998,0.535824 0,0.02214 0.462195,0.333851 1.027101,0.692695 0.564905,0.358845 1.070374,0.670028 1.046875,0.691517 -0.0235,0.02149 -0.400539,0.253852 -0.933351,0.487713 -0.532813,0.233863 -0.945026,0.437869 -0.958999,0.448574 -0.01888,0.01447 -0.165809,0.293557 -0.0753,0.468946 0.01845,0.03575 2.824049,-1.290113 2.841399,-1.342164 0.01069,-0.03206 -0.09544,-0.122852 -0.235834,-0.201759 -0.140395,-0.07891 -0.246288,-0.152442 -0.235318,-0.163411 0.01097,-0.01097 0.315162,-0.0947 0.675983,-0.186059 2.724872,-0.68996 4.680251,-1.637682 6.130598,-3.108295 1.000699,-1.01468 1.700094,-2.299334 2.209814,-3.843443 l 0.262553,-0.79536 0.592458,-0.61089 c 1.66676,-1.718615 2.360239,-3.626992 1.923679,-5.447867 -0.183198,-0.764177 -0.551544,-1.865806 -0.813917,-2.434271 -0.508975,-1.102759 -1.311248,-1.981416 -2.252394,-2.533464 -0.472238,-0.277001 -0.481987,-0.287858 -0.645356,-0.71875 -0.587922,-1.550659 -1.552084,-3.571162 -2.360739,-4.991416 -0.261537,-0.459342 -0.464232,-0.846457 -0.450432,-0.860257 0.0138,-0.0138 0.373912,0.004 0.80025,0.03956 3.533496,0.29472 5.982698,1.176143 7.88108,3.073703 0.912942,0.912547 1.602401,1.750645 2.242141,3.01915 0.611062,1.211641 0.933776,2.277888 1.090905,3.244627 0.735545,4.525458 0.512529,8.197234 -0.757179,11.091794 -0.559945,1.276509 -1.270762,2.344519 -2.276683,3.350439 -2.406782,2.406782 -5.951033,3.691447 -10.830886,4.048484 -1.733845,0.126858 -5.058851,0.04677 -6.052051,-0.152338 -0.24777,-0.04967 -0.715869,-0.06681 -1.038319,-0.09031 l -0.482359,-0.03516 -0.03411,0.421875 c -0.01876,0.232032 0.0077,0.295963 0.01589,0.304396 0.0082,0.0084 0.420444,0.05835 0.916178,0.110936 1.418851,0.150497 1.501782,0.243074 3.2194,1.666437 1.799053,1.490846 3.558889,2.263 5.591119,2.543621 l 0.295904,0.04086 -0.321127,0.289924 c -1.53683,1.387501 -4.843722,3.112856 -6.700367,3.557909 -1.340121,0.321238 -2.019466,0.581095 -3.623361,0.565259 -0.585276,-0.0058 -1.452156,-0.0322 -1.314139,-0.0322 z M 22.428221,36.989758 c -0.05127,-0.102541 0.146046,0.0035 0.146046,-0.0468 0,-0.07429 0.05576,-0.08232 0.296875,-0.04276 1.187587,0.194832 2.022371,-0.0078 2.314921,-0.83697 0.105803,-0.299879 0.05801,-1.447218 -0.03397,-1.932223 -0.03454,-0.182131 -0.05022,-0.343725 -0.03485,-0.359099 0.01537,-0.01537 0.159793,-0.0036 0.22499,0.112351 l 0.08766,0.155927 0.365156,0.12467 0.197187,-0.19955 -0.15625,-0.130541 c -0.66317,-0.554053 -1.787792,-0.562599 -2.783236,-0.122366 -0.445431,0.196991 -0.862104,0.589649 -1.045476,0.997425 -0.117061,0.260317 -0.145823,0.430991 -0.144315,0.856362 0.002,0.54935 -0.03058,0.688499 0.238447,1.300781 0.167533,0.3813 0.394267,0.257696 0.326815,0.122792 z"
       id="path1993"
       sodipodi:nodetypes="ssscssssssscsscssssssssssssscsssssssssscsscsssssssscssscscssscsscssscssssscsssssscsssscsssssscsssssssssssssscsscscsssssssssssssscscssscsscsssscsssscccssscsss" />
    <path
       style="opacity:1;mix-blend-mode:normal;fill:#2b2b2b;fill-opacity:1;stroke:#535353;stroke-width:0.0220971;stroke-linejoin:miter;stroke-miterlimit:4;stroke-dasharray:none;stroke-dashoffset:0;stroke-opacity:1"
       d="m 10.582372,34.809825 c 0,-0.326228 -0.6041235,-0.665343 -0.9320461,-0.875353 -0.2864307,-0.183437 -0.8062363,-0.409409 -1.1884785,-0.516661 -0.2239633,-0.06284 -0.419346,-0.03776 -0.419346,-0.116155 0,-0.05216 -0.177425,-0.672425 -0.2605981,-1.072817 -0.9764219,-4.700488 0.3833001,-8.07971 3.7340087,-9.768532 2.084017,-1.050385 5.384104,-1.279858 8.180738,-0.855988 0.741198,0.112339 1.298836,0.243415 1.708577,0.40161 0.384628,0.1485 0.543085,0.306113 1.149684,1.143565 0.202473,0.279528 0.508071,0.695249 0.679106,0.923825 0.605583,0.809316 1.706708,1.34612 2.861614,1.569775 l 0.287262,0.05563 -0.176777,0.04347 c -0.09723,0.02391 -0.47793,0.13848 -0.903299,0.14003 -0.895826,0.0033 -1.391201,0.0082 -2.613372,-0.359711 -0.435488,-0.131079 -0.800621,-0.229501 -0.811405,-0.218716 -0.01078,0.01078 0.169278,0.383679 0.40014,0.828655 0.692246,1.334271 0.958961,2.209252 1.044367,2.839726 l 0.03244,0.239473 -0.111336,-0.08479 c -1.122961,-0.855212 -1.424775,-1.114374 -1.906209,-1.239771 -0.298165,-0.07766 -0.842101,-0.08546 -1.170709,-0.01677 -0.224173,0.04685 -0.789009,0.221426 -0.86145,0.285286 -0.01906,0.0168 0.103988,0.314444 0.273443,0.661425 0.31587,0.646787 0.524963,1.601191 0.642313,2.173036 0.08391,0.408904 0.129293,1.16042 0.07483,1.239226 -0.03193,0.0462 -0.1491,-0.02592 -0.518352,-0.319083 -1.491618,-1.18424 -2.627989,-2.040949 -3.317216,-2.093075 -0.521845,-0.03947 -0.78135,0.179134 -1.002006,0.614576 l -0.107629,0.212395 0.131141,0.206788 c 0.244772,0.385965 0.288927,0.589802 0.286138,1.320923 -0.0025,0.65043 -0.07268,1.136636 -0.250674,1.735867 l -0.134285,0.314071 -0.267643,-0.299557 c -0.833894,-0.933326 -1.416257,-1.573543 -2.329289,-1.698344 -0.387117,-0.05291 -0.501721,-0.112292 -1.094189,0.0039 -0.300435,0.05891 -0.361648,0.0845 -0.339475,0.141899 0.01488,0.03852 0.09701,0.298734 0.182524,0.578263 0.194217,0.634875 0.214971,1.028137 0.06997,1.325825 -0.09944,0.204143 -0.78589,0.760013 -0.84164,0.757973 -0.01713,-6.28e-4 -0.180872,-0.07517 -0.180872,-0.221859 z"
       id="path1995"
       sodipodi:nodetypes="sssscsssssscscsssscsscsssscsscscscsssssssss" />
    <path
       style="opacity:1;fill:#535353;fill-opacity:1;stroke:#535353;stroke-width:0.0220971;stroke-linejoin:miter;stroke-miterlimit:4;stroke-dasharray:none;stroke-dashoffset:0;stroke-opacity:1"
       d="m 36.25826,24.520685 c -2.610015,-0.216347 -4.336937,-0.394219 -5.855728,-0.687992 -2.175453,-0.420788 -3.7249,-0.955042 -5.320074,-1.753714 -2.022341,-1.012547 -3.358951,-2.224848 -4.089854,-3.709484 -0.481184,-0.977397 -0.767346,-1.91014 -0.730893,-3.153634 0.0262,-0.893813 0.115544,-1.436151 0.386885,-2.348541 0.4973,-1.672186 1.809332,-4.0082553 3.46316,-6.3536983 0.225638,-0.319997 0.291487,-0.3889977 0.291727,-0.3056864 7.28e-4,0.2528981 0.27237,1.16794 0.475532,1.5853939 0.261408,0.5371352 0.65195,0.9654686 1.092854,1.1986065 l 0.276015,0.1459492 -0.321478,0.3621159 c -0.835702,0.9413422 -1.598146,2.1408532 -1.944284,3.0340352 -0.313339,0.808547 -0.389577,1.7424 -0.20534,2.445797 0.529402,2.021199 2.500131,3.319601 6.472129,3.918394 1.263918,0.190541 2.567382,0.23485 3.9715,0.239929 l 1.309859,0.0047 0.465359,0.883883 c 0.599887,1.139399 0.958604,1.982824 1.370559,2.89048 0.325608,0.717409 0.695822,1.67281 0.72613,1.7141 0.132583,0.180621 -0.193476,0.02532 -1.834058,-0.110672 z"
       id="path1997"
       sodipodi:nodetypes="cssssssssscssssccssscc" />
    <ellipse
       style="opacity:0.551282;fill:#2b2b2b;fill-opacity:1;stroke:#535353;stroke-width:0.5;stroke-linejoin:miter;stroke-miterlimit:4;stroke-dasharray:none;stroke-dashoffset:0;stroke-opacity:1"
       id="path3987"
       cx="23.992188"
       cy="35.632812"
       rx="0.4296875"
       ry="0.3203125" />
  </g>
  <g
     inkscape:groupmode="layer"
     id="layer7"
     inkscape:label="tusks white 2"
     style="display:inline">
    <path
       style="display:inline;fill:#e6e6e6;fill-opacity:1;stroke:#000000;stroke-width:0.0480739;stroke-linejoin:miter;stroke-miterlimit:4;stroke-dasharray:none;stroke-dashoffset:0;stroke-opacity:1"
       d="M 43.990547,19.853437 C 43.180253,17.978663 43.554116,18.896827 42.203434,17.050386 40.852752,15.203945 39.199399,13.327274 37.178425,11.331581 35.15781,9.336243 34.076404,8.48458 31.996065,7.25021 31.418288,6.907385 30.973087,6.620251 31.006731,6.612133 c 0.03365,-0.0081 0.291626,0.03247 0.573284,0.09017 3.602025,0.737995 8.986274,4.729087 12.694729,9.41001 1.320783,1.667131 2.687103,3.887069 3.530282,5.735852 -1.78294,-1.273891 -2.276057,-1.126672 -3.814479,-1.994724 z"
       id="path1465-6"
       sodipodi:nodetypes="csssscscc" />
    <path
       style="fill:#e6e6e6;fill-opacity:1;stroke:#000000;stroke-width:0.0078125;stroke-linejoin:miter;stroke-miterlimit:4;stroke-dasharray:none;stroke-dashoffset:0;stroke-opacity:1"
       d="m 23.293313,36.557905 c -0.338932,-0.04864 -0.6785,-0.154023 -0.83191,-0.258168 -0.05014,-0.03404 -0.114591,-0.07036 -0.143219,-0.08071 -0.03074,-0.01111 -0.05506,-0.03213 -0.05941,-0.05131 -0.07777,-0.343301 -0.09609,-0.529519 -0.07363,-0.748349 0.02088,-0.203451 0.05057,-0.311545 0.13598,-0.49508 0.262757,-0.564616 0.910361,-0.953221 1.742555,-1.045649 0.163084,-0.01811 0.467037,-0.02229 0.523358,-0.0072 0.03923,0.01052 0.05197,0.04667 0.137329,0.389518 0.156,0.626619 0.187516,1.151167 0.09196,1.530503 -0.09555,0.379317 -0.367344,0.646296 -0.755935,0.742555 -0.173171,0.0429 -0.552331,0.0547 -0.767071,0.02388 z"
       id="path1529" />
  </g>
  <g
     inkscape:groupmode="layer"
     id="layer4"
     inkscape:label="head"
     style="display:inline">
    <path
       id="Unnamed-1"
       style="color:#000000;font-style:normal;font-variant:normal;font-weight:normal;font-stretch:normal;font-size:medium;line-height:normal;font-family:sans-serif;font-variant-ligatures:normal;font-variant-position:normal;font-variant-caps:normal;font-variant-numeric:normal;font-variant-alternates:normal;font-variant-east-asian:normal;font-feature-settings:normal;font-variation-settings:normal;text-indent:0;text-align:start;text-decoration:none;text-decoration-line:none;text-decoration-style:solid;text-decoration-color:#000000;letter-spacing:normal;word-spacing:normal;text-transform:none;writing-mode:lr-tb;direction:ltr;text-orientation:mixed;dominant-baseline:auto;baseline-shift:baseline;text-anchor:start;white-space:normal;shape-padding:0;shape-margin:0;inline-size:0;clip-rule:nonzero;display:inline;overflow:visible;visibility:visible;isolation:auto;mix-blend-mode:normal;color-interpolation:sRGB;color-interpolation-filters:linearRGB;solid-color:#000000;solid-opacity:1;vector-effect:none;fill:#000000;fill-opacity:1;fill-rule:nonzero;stroke:#000000;stroke-width:0.75;stroke-linecap:butt;stroke-linejoin:miter;stroke-miterlimit:4;stroke-dasharray:none;stroke-dashoffset:0;stroke-opacity:1;color-rendering:auto;image-rendering:auto;shape-rendering:auto;text-rendering:auto;enable-background:accumulate;stop-color:#000000"
       d="M 24.660156,5.015625 C 24.2377,5.6749006 23.309522,6.8663056 22.380859,8.3496094 21.452194,9.8329122 20.522666,11.61003 20.09375,13.455078 c -0.428915,1.845049 -0.354831,3.759971 0.728516,5.503906 1.083348,1.743937 3.170536,3.312446 6.755859,4.478516 l 0.002,0.002 c 4.885357,1.409474 8.830977,1.205133 11.78711,1.683594 1.478065,0.23923 2.706412,0.647709 3.6875,1.507812 0.981084,0.860103 1.720282,2.175395 2.208984,4.240235 -0.491871,-2.077437 -1.139761,-3.440917 -2.140625,-4.31836 -1.001079,-0.877631 -2.250905,-1.292466 -3.738281,-1.533203 -2.974414,-0.481421 -6.907447,-0.275539 -11.775391,-1.679687 -3.570753,-1.161332 -5.634756,-2.718865 -6.701172,-4.435547 -1.066418,-1.716681 -1.139538,-3.596939 -0.714844,-5.423828 0.424694,-1.82689 1.350008,-3.5981091 2.275391,-5.0761721 0.877277,-1.4012285 1.725314,-2.5044293 2.179688,-3.1894531 -0.06843,1.1002951 0.128421,2.0216856 0.527343,2.6679687 0.398807,0.6460976 0.997258,1.0108342 1.689453,1.0253906 -2.115622,2.1693849 -2.975978,3.8958079 -2.982422,5.2714849 -0.0065,1.392371 0.864193,2.410002 2.146485,3.132812 2.564583,1.445621 6.790805,1.751022 9.171875,1.646484 3.403905,-0.208316 6.708872,-0.181165 9.5,0.96875 2.790476,1.149646 5.072315,3.417592 6.445312,7.712891 0.995678,5.324143 0.594087,9.248715 -0.671875,12.128906 -1.266247,2.880838 -3.397007,4.720645 -5.873047,5.875 -4.311954,2.010276 -9.666034,1.932381 -13.277343,1.621094 -0.438555,-0.122208 -0.924236,-0.1835 -1.496094,-0.146484 l -0.0039,0.103515 c 0.448901,0.05037 0.949622,0.100195 1.484375,0.146485 0.326561,0.09226 0.627632,0.216481 0.908203,0.375 0.650269,0.367392 1.214317,0.884739 1.857422,1.419921 1.269153,1.056168 2.856268,2.166747 6.007812,2.271485 -1.572641,1.599346 -3.970999,3.585848 -7.330078,4.53125 -2.554528,0.718963 -7.90709,0.01044 -12.597709,-1.496138 4.504951,1.572385 8.809822,2.25404 12.625053,1.595747 3.519174,-0.60721 5.883454,-3.019639 7.460937,-4.638672 l 0.08398,-0.08594 -0.119141,-0.002 c -3.214131,-0.07789 -4.783126,-1.189559 -6.064453,-2.25586 -0.640663,-0.53315 -1.208905,-1.05641 -1.873047,-1.43164 -0.167205,-0.09447 -0.339505,-0.178801 -0.521484,-0.251953 3.605344,0.281767 8.718539,0.2866 12.898437,-1.66211 2.4935,-1.162495 4.646761,-3.020325 5.923828,-5.925781 1.277068,-2.905456 1.678872,-6.855148 0.679688,-12.195312 l -0.002,-0.002 v -0.0039 c -1.37992,-4.319245 -3.688917,-6.618746 -6.50586,-7.779297 -2.816719,-1.160457 -6.13675,-1.185103 -9.544922,-0.976562 -2.366939,0.103917 -6.587576,-0.208006 -9.115234,-1.632813 -1.263828,-0.712405 -2.100066,-1.694547 -2.09375,-3.042968 0.0063,-1.348424 0.862565,-3.080355 3.025391,-5.2773442 l 0.0918,-0.091797 -0.13086,0.00391 C 26.268541,8.8399382 25.668797,8.4825057 25.263672,7.8261719 24.858546,7.1698383 24.653401,6.2127638 24.755859,5.0488281 Z m 20.603516,25.855469 c 0.405135,1.534121 -0.499169,3.534335 -1.832031,4.927734 -0.666431,0.696699 -1.43887,1.242103 -2.199219,1.503906 -0.76035,0.261803 -1.504751,0.242565 -2.134766,-0.18164 l -0.05664,0.08594 c 0.660205,0.444531 1.443145,0.462434 2.224609,0.19336 0.781464,-0.269073 1.564836,-0.823223 2.240234,-1.529297 1.350796,-1.412148 2.178419,-3.407293 1.757813,-5 z M 17.845703,21.013672 c -1.385987,-0.03906 -2.946725,0.08386 -4.4375,0.490234 -1.987699,0.541839 -3.8501822,1.589202 -4.9902342,3.429688 -1.1378372,1.836909 -1.5501975,4.460156 -0.6601563,8.140625 -0.258163,0.559624 -0.6865281,0.984199 -1.1171875,1.396484 -0.4342953,0.415765 -0.8710628,0.818744 -1.1230469,1.339844 -0.2519841,0.521098 -0.3141375,1.158888 -0.00781,2.025391 0.3059432,0.865428 0.9773217,1.962783 2.1894532,3.421874 1.177578,2.017745 1.231013,4.301113 1.4375,7.011719 l 0.00391,0.05664 0.054687,-0.0098 c 0.6912701,-0.124649 1.5695397,0.39187 2.4023437,1.498047 0.832805,1.106178 1.618074,2.793504 2.132813,4.976563 l 0.02148,0.09375 0.06641,-0.07031 c 0.675677,-0.734772 1.200949,-1.601104 2.082032,-2.068359 0.881084,-0.467256 2.125478,-0.548282 4.259765,0.308594 l 0.08203,0.0332 L 20.230469,53 c -0.258253,-2.086249 -0.774337,-5.424848 -0.876953,-6.357422 l -0.101563,0.01172 c 0.10243,0.930898 0.604159,4.186108 0.865235,6.273437 -2.097706,-0.826654 -3.363562,-0.750782 -4.263672,-0.273437 -0.88328,0.46842 -1.411649,1.307146 -2.048828,2.017578 C 13.287036,52.52623 12.511153,50.8544 11.679688,49.75 10.855874,48.655766 9.9767211,48.109164 9.234375,48.208984 9.031359,45.52348 8.9746384,43.236465 7.7871094,41.203125 l -0.00195,-0.0039 -0.00391,-0.0039 C 6.5706035,39.738809 5.9069543,38.648074 5.6074219,37.800781 5.3078885,36.953487 5.3688854,36.352803 5.609375,35.855469 5.8498679,35.358133 6.2758495,34.9634 6.7109375,34.546875 7.1460241,34.13035 7.5899799,33.69223 7.8574219,33.103516 l 0.00781,-0.01563 -0.00391,-0.01953 C 6.9689069,29.394876 7.3813261,26.800547 8.5039,24.988278 c 1.1225741,-1.812269 2.960559,-2.847457 4.931641,-3.384765 1.971084,-0.537309 4.074553,-0.575646 5.71875,-0.398438 0.822098,0.0886 1.529765,0.232472 2.046875,0.392578 0.258555,0.08005 0.468329,0.16304 0.621094,0.246094 0.152764,0.08306 0.245167,0.16812 0.271484,0.228516 l 0.0039,0.0078 0.0059,0.0078 c 0.922934,0.983741 1.21091,1.797418 1.904296,2.384765 0.693388,0.587349 1.77891,0.927642 4.273438,0.966797 h 0.002 0.002 c 0.790947,-0.03157 1.428989,0.221071 1.972656,0.662109 0.54367,0.441041 0.990398,1.07042 1.384766,1.78711 0.788735,1.433383 1.365804,3.212141 2.117188,4.507812 1.549309,2.670279 4.010293,3.883199 4.738281,4.425782 l 0.06836,-0.08203 c -0.745959,-0.555976 -3.181964,-1.751156 -4.716797,-4.396485 -0.742175,-1.279794 -1.321274,-3.05748 -2.117187,-4.503906 -0.397957,-0.723213 -0.850653,-1.364476 -1.410156,-1.81836 -0.559037,-0.453506 -1.224869,-0.71951 -2.039063,-0.6875 h -0.002 C 25.797219,25.294767 24.74189,24.95805 24.074297,24.392551 23.4065,23.826881 23.112794,23.012181 22.177812,22.015598 l 0.0098,0.01563 c -0.04465,-0.10246 -0.154537,-0.191293 -0.316406,-0.279297 -0.161869,-0.088 -0.377683,-0.172494 -0.640625,-0.253906 -0.525884,-0.162824 -1.23891,-0.307296 -2.066407,-0.396485 -0.413747,-0.04459 -0.856363,-0.07487 -1.318359,-0.08789 z m -1.945312,31.732422 c 1.028717,0.518865 2.168075,0.975623 3.33789,1.394531 z m 3.33789,1.394531 0.144531,0.06055 c 0.260187,0.09759 0.514025,0.17821 0.771485,0.269531 -0.311477,-0.102095 -0.609868,-0.220447 -0.916016,-0.330078 z"
       sodipodi:nodetypes="csssccsscsscssscsccscscssccccsscscscccsscsscccscsccccsccsssccssssccscsssccccscccsccccccscsccccssscccssssscccscccssccccssccsccsssccccccccsc" />
  </g>
  <g
     inkscape:groupmode="layer"
     id="layer6"
     inkscape:label="tusks white"
     style="display:inline">
    <path
       style="display:inline;fill:#e6e6e6;fill-opacity:1;stroke:#000000;stroke-width:0.0480739;stroke-linejoin:miter;stroke-miterlimit:4;stroke-dasharray:none;stroke-dashoffset:0;stroke-opacity:1"
       d="m 31.923488,44.025644 c -0.02576,-0.131896 0.343646,-0.09732 -0.384654,-0.302888 -0.0193,-0.0054 0.224501,-0.145811 0.914255,-0.446567 0.689754,-0.300757 1.332222,-0.622592 1.332222,-0.648348 0,-0.02576 -0.152266,-0.222389 -0.592908,-0.637932 l -0.854631,-0.805948 0.60301,-0.03651 c 0.330806,-0.02003 2.728507,-0.306277 4.122251,-1.130425 1.011954,-0.598386 1.767107,-1.204806 2.099216,-1.685759 0.331647,-0.48028 0.83896,-1.732356 1.069506,-2.639591 0.228693,-0.899953 0.223576,-4.308182 -0.0085,-5.650192 -0.696007,-4.025046 -2.371304,-8.045382 -5.364418,-12.873402 -1.49629,-2.413582 -2.347794,-3.495113 -4.080613,-5.182956 -0.48126,-0.46877 -0.846702,-0.852309 -0.812092,-0.852309 0.03461,0 0.275876,0.09996 0.536148,0.222103 3.328478,1.562195 7.626523,6.704739 10.133728,12.12485 0.892953,1.930396 1.700522,4.40886 2.086588,6.40383 0.240149,1.240955 0.246756,4.229625 0.01212,5.483511 -0.665783,3.557917 -1.990335,5.961731 -5.062145,7.426031 -1.17505,0.560133 -2.175439,0.913313 -3.956696,1.343679 -0.74184,0.179235 -0.68628,0.158388 -1.401706,0.162442 -0.06236,3.54e-4 -0.144945,-0.05464 -0.324281,-0.160336 z"
       id="path1465"
       sodipodi:nodetypes="csssscsssscssscsssssscc" />
    <ellipse
       style="display:inline;opacity:0.551282;fill:#000000;fill-opacity:1;stroke:#535353;stroke-width:0.5;stroke-linejoin:miter;stroke-miterlimit:4;stroke-dasharray:none;stroke-dashoffset:0;stroke-opacity:1"
       id="path4017"
       cx="24.455273"
       cy="35.730801"
       rx="0.6171875"
       ry="0.609375" />
  </g>
  <g
     transform="matrix(1.0023412,0,0,0.9058051,-61.396464,40.36586)"
     style="font-style:normal;font-variant:normal;font-weight:normal;font-stretch:normal;font-size:37.4134px;line-height:125%;font-family:'Good Times';-inkscape-font-specification:'Good Times, Normal';text-align:start;letter-spacing:0px;word-spacing:0px;writing-mode:lr-tb;text-anchor:start;fill:#000000;fill-opacity:0.675079;stroke:none;stroke-width:1px;stroke-linecap:butt;stroke-linejoin:miter;stroke-opacity:1"
     id="text3348">
    <path
       d="m 128.26142,-1.5900734 z m 25.54602,0.1593692 V -18.21762 H 137.8248 v -6.002915 h 15.98264 v -15.99007 h 5.54588 v 38.7799008 z m -25.54602,0 V -40.210605 h 5.54589 v 38.7799008 z"
       style="font-style:normal;font-variant:normal;font-weight:normal;font-stretch:normal;font-size:37.4134px;line-height:125%;font-family:'Good Times';-inkscape-font-specification:'Good Times, Normal';text-align:start;writing-mode:lr-tb;text-anchor:start;fill:#000000;fill-opacity:0.675079"
       id="path4162"
       inkscape:connector-curvature="0" />
    <path
       d="m 162.71102,-1.5900734 z m 35.2404,0 -4.75987,-9.7215356 h -15.02193 l 2.62011,-5.471685 h 9.73806 l -7.07427,-14.449497 -14.41059,29.6427176 h -6.33191 l 18.25339,-36.9737126 q 0.48035,-1.00934 1.13538,-1.593695 0.65502,-0.584355 1.57206,-0.584355 0.91703,0 1.52839,0.584355 0.65502,0.584355 1.13538,1.593695 l 18.29706,36.9737126 z"
       style="font-style:normal;font-variant:normal;font-weight:normal;font-stretch:normal;font-size:37.4134px;line-height:125%;font-family:'Good Times';-inkscape-font-specification:'Good Times, Normal';text-align:start;writing-mode:lr-tb;text-anchor:start;fill:#000000;fill-opacity:0.675079"
       id="path4164"
       inkscape:connector-curvature="0" />
    <path
       d="m 195.6329,-1.5900734 z m 0,-38.6205316 h 6.76859 l 14.41059,29.748966 14.3669,-29.748966 h 6.37557 l -18.29704,36.9737147 q -0.48036,1.0093389 -1.13539,1.5936943 -0.65502,0.5843542 -1.5284,0.5843542 -0.91702,0 -1.57205,-0.5843542 -0.65503,-0.5843554 -1.13538,-1.5936943 z"
       style="font-style:normal;font-variant:normal;font-weight:normal;font-stretch:normal;font-size:37.4134px;line-height:125%;font-family:'Good Times';-inkscape-font-specification:'Good Times, Normal';text-align:start;writing-mode:lr-tb;text-anchor:start;fill:#000000;fill-opacity:0.675079"
       id="path4166"
       inkscape:connector-curvature="0" />
    <path
       d="m 240.92931,-1.5900734 z m 0,0 V -40.210605 h 28.34079 v 6.746641 h -22.83857 v 25.1272507 h 22.88224 v 6.7466399 z m 9.56338,-16.7869156 v -5.684177 h 17.59836 v 5.684177 z"
       style="font-style:normal;font-variant:normal;font-weight:normal;font-stretch:normal;font-size:37.4134px;line-height:125%;font-family:'Good Times';-inkscape-font-specification:'Good Times, Normal';text-align:start;writing-mode:lr-tb;text-anchor:start;fill:#000000;fill-opacity:0.675079"
       id="path4168"
       inkscape:connector-curvature="0" />
    <path
       d="m 273.97605,-1.5900734 z m 5.28388,-28.2615156 v 28.2615156 h -5.28388 V -36.651354 q 0,-1.85931 0.74237,-2.921772 0.78602,-1.115586 2.09608,-1.115586 0.61135,0 1.17904,0.318739 0.56769,0.318738 1.17906,1.062462 l 22.40188,27.039685 v -28.261517 h 5.28388 v 35.3800188 q 0,1.9124339 -0.78604,2.9748968 -0.74236,1.062463 -1.96507,1.062463 -1.35372,0 -2.53277,-1.4343253 z"
       style="font-style:normal;font-variant:normal;font-weight:normal;font-stretch:normal;font-size:37.4134px;line-height:125%;font-family:'Good Times';-inkscape-font-specification:'Good Times, Normal';text-align:start;writing-mode:lr-tb;text-anchor:start;fill:#000000;fill-opacity:0.675079"
       id="path4170"
       inkscape:connector-curvature="0" />
  </g>
  <g
     aria-label="SPECULATIVE"
     transform="matrix(1.4147227,0,0,1.4702394,-65.238124,-33.902332)"
     id="flowRoot4179"
     style="font-style:normal;font-variant:normal;font-weight:normal;font-stretch:normal;line-height:0.01%;font-family:'Good Times';-inkscape-font-specification:'Good Times, Normal';text-align:start;letter-spacing:0px;word-spacing:0px;writing-mode:lr-tb;text-anchor:start;fill:#1c3ed3;fill-opacity:1;stroke:none;stroke-width:1px;stroke-linecap:butt;stroke-linejoin:miter;stroke-opacity:1">
    <path
       d="m 93.905937,63.643203 v -1.905 h 8.175003 q 0.765,0 1.17,-0.39 0.42,-0.39 0.42,-1.035 0,-0.705 -0.42,-1.05 -0.405,-0.36 -1.17,-0.36 h -5.010003 q -0.765,0 -1.394999,-0.225 -0.615001,-0.24 -1.05,-0.645 -0.42,-0.42 -0.660001,-0.99 -0.225,-0.57 -0.225,-1.245 0,-0.66 0.21,-1.215 0.225001,-0.57 0.645001,-0.975 0.434999,-0.405 1.065,-0.63 0.629999,-0.24 1.439999,-0.24 h 7.830003 v 1.905 h -7.830003 q -0.659999,0 -1.019999,0.36 -0.36,0.345 -0.36,0.975 0,0.63 0.36,0.975 0.375,0.345 1.004999,0.345 h 4.995003 q 1.665,0 2.52,0.78 0.87,0.78 0.87,2.37 0,0.69 -0.21,1.275 -0.21,0.585 -0.63,1.02 -0.42,0.42 -1.065,0.66 -0.63,0.24 -1.485,0.24 z"
       style="font-size:15px;line-height:1.25"
       id="path54" />
    <path
       d="m 110.39092,60.613203 v -1.845 h 4.38 q 1.005,0 1.56,-0.57 0.57,-0.57 0.57,-1.5 0,-0.945 -0.57,-1.5 -0.555,-0.555 -1.56,-0.555 h -5.775 v 9 h -1.89 v -10.905 h 7.665 q 0.945,0 1.68,0.285 0.75,0.27 1.26,0.78 0.51,0.495 0.78,1.215 0.27,0.72 0.27,1.62 0,0.885 -0.27,1.62 -0.27,0.72 -0.78,1.245 -0.51,0.525 -1.26,0.825 -0.735,0.285 -1.68,0.285 z"
       style="font-size:15px;line-height:1.25"
       id="path56" />
    <path
       d="m 120.1109,63.643203 v -10.905 h 9.735 v 1.905 h -7.845 v 7.095 h 7.86 v 1.905 z m 3.285,-4.74 v -1.605 h 6.045 v 1.605 z"
       style="font-size:15px;line-height:1.25"
       id="path58" />
    <path
       d="m 136.47589,63.643203 q -1.14,0 -2.115,-0.42 -0.96,-0.435 -1.68,-1.17 -0.705,-0.75 -1.11,-1.77 -0.39,-1.02 -0.39,-2.205 0,-1.2 0.39,-2.19 0.405,-0.99 1.11,-1.68 0.72,-0.705 1.68,-1.08 0.975,-0.39 2.115,-0.39 h 5.91 v 1.905 h -5.91 q -0.735,0 -1.365,0.27 -0.615,0.255 -1.065,0.72 -0.45,0.465 -0.705,1.11 -0.255,0.645 -0.255,1.425 0,0.765 0.255,1.425 0.255,0.66 0.705,1.14 0.45,0.465 1.065,0.735 0.63,0.27 1.365,0.27 h 5.91 v 1.905 z"
       style="font-size:15px;line-height:1.25"
       id="path60" />
    <path
       d="m 153.68087,52.738203 h 1.86 v 6.09 q 0,1.26 -0.33,2.205 -0.33,0.93 -1.035,1.545 -0.705,0.615 -1.83,0.915 -1.11,0.3 -2.7,0.3 -1.575,0 -2.7,-0.3 -1.11,-0.3 -1.815,-0.915 -0.705,-0.615 -1.035,-1.545 -0.33,-0.945 -0.33,-2.205 v -6.09 h 1.965 v 6.09 q 0,0.825 0.195,1.41 0.21,0.585 0.66,0.96 0.465,0.375 1.23,0.555 0.765,0.165 1.89,0.165 1.125,0 1.89,-0.165 0.765,-0.18 1.215,-0.555 0.465,-0.375 0.66,-0.96 0.21,-0.585 0.21,-1.41 z"
       style="font-size:15px;line-height:1.25"
       id="path62" />
    <path
       d="m 157.26587,63.643203 v -10.905 h 1.905 v 9 h 7.335 v 1.905 z"
       style="font-size:15px;line-height:1.25"
       id="path64" />
    <path
       d="m 179.24085,63.643203 -1.635,-2.745 h -5.16 l 0.9,-1.545 h 3.345 l -2.43,-4.08 -4.95,8.37 h -2.175 l 6.27,-10.44 q 0.165,-0.285 0.39,-0.45 0.225,-0.165 0.54,-0.165 0.315,0 0.525,0.165 0.225,0.165 0.39,0.45 l 6.285,10.44 z"
       style="font-size:15px;line-height:1.25"
       id="path66" />
    <path
       d="m 184.2658,63.643203 v -9 h -4.14 v -1.905 h 10.185 v 1.905 h -4.14 v 9 z"
       style="font-size:15px;line-height:1.25"
       id="path68" />
    <path
       d="m 191.67579,63.643203 v -10.905 h 1.905 v 10.905 z"
       style="font-size:15px;line-height:1.25"
       id="path70" />
    <path
       d="m 194.84077,52.738203 h 2.325 l 4.95,8.4 4.935,-8.4 h 2.19 l -6.285,10.44 q -0.165,0.285 -0.39,0.45 -0.225,0.165 -0.525,0.165 -0.315,0 -0.54,-0.165 -0.225,-0.165 -0.39,-0.45 z"
       style="font-size:15px;line-height:1.25"
       id="path72" />
    <path
       d="m 210.41074,63.643203 v -10.905 h 9.735 v 1.905 h -7.845 v 7.095 h 7.86 v 1.905 z m 3.285,-4.74 v -1.605 h 6.045 v 1.605 z"
       style="font-size:15px;line-height:1.25"
       id="path74" />
  </g>
  <g
     id="g83"
     transform="matrix(0.10321761,0,0,0.10422761,-6.6540919,-3.0721232)">
    <path
       id="Unnamed #3-1"
       fill="none"
       stroke="#000000"
       stroke-width="1"
       d="m 358,337.33 c 7.67,-2.66 9.33,0.34 25.67,-15"
       style="stroke-width:4.82061;stroke-miterlimit:4;stroke-dasharray:none" />
    <path
       id="Unnamed #2-3"
       fill="none"
       stroke="#000000"
       stroke-width="1"
       d="m 332.13289,273.46676 c -0.0304,0.01 7.7e-4,0.002 -0.091,0.029 -22.31011,6.44592 -30.56877,9.16601 -50.04185,3.17429 6,11.5 14.17,27.16 10.67,37.66 -12.5,-6.5 -19.67,-20.5 -37.67,-13 5.5,10 12.83,29.34 7.33,42.34 -11.5,-9 -39.83,-33.5 -45.33,-21 7,9.5 3,28.66 -2,41.66 -7.5,-9.5 -17.67,-27.5 -37.67,-23 5,15 3,17.84 -9,30.34 -5,-12.5 -15,-17.5 -27,-20"
       style="stroke:#000000;stroke-width:7.23091;stroke-miterlimit:4;stroke-dasharray:none;stroke-opacity:1"
       sodipodi:nodetypes="csccccccccc" />
    <path
       id="Unnamed #3-1-0"
       fill="none"
       stroke="#000000"
       stroke-width="1"
       d="m 373.03964,358.22276 c 7.67,-2.66 9.33,0.34 25.67,-15"
       style="stroke-width:4.82061;stroke-miterlimit:4;stroke-dasharray:none" />
    <path
       id="Unnamed #3-1-02"
       fill="none"
       stroke="#000000"
       stroke-width="1"
       d="m 388.30981,379.68212 c 7.67,-2.66 9.33,0.34 25.67,-15"
       style="stroke-width:4.82061;stroke-miterlimit:4;stroke-dasharray:none" />
  </g>
  <g
     inkscape:groupmode="layer"
     id="layer3"
     inkscape:label="tusks"
     style="display:inline">
    <path
       id="Unnamed #1-5"
       fill="none"
       stroke="#000000"
       stroke-width="1"
       d="M 32.966636,44.550161 C 36.043619,43.657226 44.113209,42.813414 43.011878,30.792843 42.541121,27.37194 40.92807,22.062944 36.953377,16.775756 c -1.836321,-2.442702 -4.015434,-4.773293 -7.412942,-5.668122 3.289344,3.430361 3.766924,3.813881 5.446355,6.726739 2.353652,4.082248 4.523612,8.635416 5.035463,13.682996 0.09752,2.640085 0.208278,4.107786 -0.921949,6.427662 -0.398266,0.817472 -2.064652,1.869111 -3.007428,2.301327 -0.942776,0.432217 -2.161028,0.679949 -3.735573,0.718853 M 47.805026,21.848165 C 46.411588,18.35654 40.9312,8.7802116 31.073919,6.4872035 32.7254,8.1027316 41.262346,13.732477 43.677553,19.464268"
       style="stroke-width:0.75;stroke-miterlimit:4;stroke-dasharray:none"
       sodipodi:nodetypes="ccscscsscccc" />
    <path
       style="fill:none;stroke:#000000;stroke-width:0.54639;stroke-linecap:butt;stroke-linejoin:miter;stroke-miterlimit:4;stroke-dasharray:none;stroke-opacity:1"
       d="m 32.46245,38.359882 2.241757,1.302317 -2.772685,1.256137 2.114821,1.63138 -2.400669,1.128364 2.158374,1.385636 -2.599292,1.150416"
       id="path1345"
       sodipodi:nodetypes="ccccccc" />
    <ellipse
       style="opacity:0.551282;fill:#000000;fill-opacity:1;stroke:#535353;stroke-width:0.5;stroke-linejoin:miter;stroke-miterlimit:4;stroke-dasharray:none;stroke-dashoffset:0;stroke-opacity:1"
       id="path3989"
       cx="24.448223"
       cy="35.71875"
       rx="0.6171875"
       ry="0.6015625" />
    <path
       id="Unnamed #4-3"
       fill="none"
       stroke="#000000"
       stroke-width="1"
       d="m 25.865178,34.136556 c -1.032176,-1.216336 -5.401377,-0.416911 -3.440243,3.056996 -0.04335,-0.334571 -0.404613,-0.932838 -0.09496,-0.672269 0.309653,0.26057 3.844856,1.34141 2.503027,-2.841244"
       style="stroke-width:0.5;stroke-miterlimit:4;stroke-dasharray:none" />
  </g>
</svg>
