<?xml version="1.0" encoding="UTF-8" standalone="no"?>
<svg
   xmlns:dc="http://purl.org/dc/elements/1.1/"
   xmlns:cc="http://creativecommons.org/ns#"
   xmlns:rdf="http://www.w3.org/1999/02/22-rdf-syntax-ns#"
   xmlns:svg="http://www.w3.org/2000/svg"
   xmlns="http://www.w3.org/2000/svg"
   xmlns:sodipodi="http://sodipodi.sourceforge.net/DTD/sodipodi-0.dtd"
   xmlns:inkscape="http://www.inkscape.org/namespaces/inkscape"
   width="359"
   height="50"
   viewBox="0 0 359 50"
   version="1.1"
   id="svg2"
   inkscape:version="1.0.2-2 (e86c870879, 2021-01-15)"
   sodipodi:docname="logo-mobile.svg">
  <metadata
     id="metadata16">
    <rdf:RDF>
      <cc:Work
         rdf:about="">
        <dc:format>image/svg+xml</dc:format>
        <dc:type
           rdf:resource="http://purl.org/dc/dcmitype/StillImage" />
        <dc:title>logo</dc:title>
      </cc:Work>
    </rdf:RDF>
  </metadata>
  <sodipodi:namedview
     pagecolor="#ffffff"
     bordercolor="#666666"
     borderopacity="1"
     objecttolerance="10"
     gridtolerance="10"
     guidetolerance="10"
     inkscape:pageopacity="0"
     inkscape:pageshadow="2"
     inkscape:window-width="1920"
     inkscape:window-height="1017"
     id="namedview14"
     showgrid="false"
     inkscape:zoom="2.1199047"
     inkscape:cx="84.572265"
     inkscape:cy="14.752589"
     inkscape:window-x="-8"
     inkscape:window-y="-8"
     inkscape:window-maximized="1"
     inkscape:current-layer="svg2"
     inkscape:document-rotation="0" />
  <!-- Generator: Sketch 51.3 (57544) - http://www.bohemiancoding.com/sketch -->
  <title
     id="title4">logo</title>
  <desc
     id="desc6">Created with Sketch.</desc>
  <defs
     id="defs8" />
  <text
     xml:space="preserve"
     style="font-style:normal;font-variant:normal;font-weight:normal;font-stretch:normal;line-height:0%;font-family:'Good Times';-inkscape-font-specification:'Good Times';letter-spacing:0px;word-spacing:0px;writing-mode:lr-tb;fill:#000000;fill-opacity:1;stroke:none;stroke-width:1px;stroke-linecap:butt;stroke-linejoin:miter;stroke-opacity:1"
     x="4.8024216"
     y="10.56959"
     id="text3344"><tspan
       sodipodi:role="line"
       id="tspan3346"
       x="4.8024216"
       y="10.56959"
       style="font-size:40px;line-height:1.25"> </tspan></text>
  <g
     transform="scale(0.80882918,1.236355)"
     style="font-style:normal;font-weight:normal;font-size:54.99552155px;line-height:125%;font-family:sans-serif;letter-spacing:0px;word-spacing:0px;writing-mode:lr-tb;fill:#000000;fill-opacity:0.67507887;stroke:none;stroke-width:1px;stroke-linecap:butt;stroke-linejoin:miter;stroke-opacity:1"
     id="text3348">
    <path
       d="m 0.83598342,34.352062 0,0 z m 22.11851358,0.113429 0,-11.947779 -13.8382494,0 0,-4.272465 13.8382494,0 0,-11.380637 4.801797,0 0,27.600881 -4.801797,0 z m -22.11851358,0 0,-27.600881 4.80179698,0 0,27.600881 -4.80179698,0 z"
       style="font-style:normal;font-variant:normal;font-weight:normal;font-stretch:normal;font-size:37.80942535px;font-family:'Good Times';-inkscape-font-specification:'Good Times';fill:#000000;fill-opacity:0.67507887"
       id="path4162" />
    <path
       d="m 30.663484,34.352062 0,0 z m 30.512206,0 -4.121227,-6.919125 -13.006442,0 2.268565,-3.89437 8.431502,0 -6.125127,-10.284164 -12.47711,21.097659 -5.482367,0 15.80434,-26.3153598 q 0.415903,-0.7183791 0.983045,-1.1342828 0.567141,-0.4159037 1.361139,-0.4159037 0.793998,0 1.32333,0.4159037 0.567141,0.4159037 0.983045,1.1342828 l 15.842149,26.3153598 -5.784842,0 z"
       style="font-style:normal;font-variant:normal;font-weight:normal;font-stretch:normal;font-size:37.80942535px;font-family:'Good Times';-inkscape-font-specification:'Good Times';fill:#000000;fill-opacity:0.67507887"
       id="path4164" />
    <path
       d="m 59.168247,34.352062 0,0 z m 0,-27.487452 5.860461,0 12.47711,21.173278 12.439301,-21.173278 5.520176,0 -15.842149,26.31536 q -0.415904,0.718379 -0.983045,1.134283 -0.567142,0.415903 -1.32333,0.415903 -0.793998,0 -1.361139,-0.415903 Q 75.38849,33.898349 74.972586,33.17997 L 59.168247,6.86461 Z"
       style="font-style:normal;font-variant:normal;font-weight:normal;font-stretch:normal;font-size:37.80942535px;font-family:'Good Times';-inkscape-font-specification:'Good Times';fill:#000000;fill-opacity:0.67507887"
       id="path4166" />
    <path
       d="m 98.387253,34.352062 0,0 z m 0,0 0,-27.487452 24.538317,0 0,4.801797 -19.77433,0 0,17.883858 19.81214,0 0,4.801797 -24.576127,0 z m 8.280267,-11.947778 0,-4.045609 15.2372,0 0,4.045609 -15.2372,0 z"
       style="font-style:normal;font-variant:normal;font-weight:normal;font-stretch:normal;font-size:37.80942535px;font-family:'Good Times';-inkscape-font-specification:'Good Times';fill:#000000;fill-opacity:0.67507887"
       id="path4168" />
    <path
       d="m 127.00013,34.352062 0,0 z m 4.57494,-20.114614 0,20.114614 -4.57494,0 0,-24.9542205 q 0,-1.3233299 0.64276,-2.0795184 0.68057,-0.7939979 1.81485,-0.7939979 0.52933,0 1.02085,0.2268565 0.49153,0.2268566 1.02086,0.7561885 l 19.39623,19.2449978 0,-20.1146146 4.57495,0 0,25.1810776 q 0,1.361139 -0.68057,2.117328 -0.64276,0.756188 -1.70143,0.756188 -1.17209,0 -2.19295,-1.020854 L 131.57507,14.237448 Z"
       style="font-style:normal;font-variant:normal;font-weight:normal;font-stretch:normal;font-size:37.80942535px;font-family:'Good Times';-inkscape-font-specification:'Good Times';fill:#000000;fill-opacity:0.67507887"
       id="path4170" />
    <path
       d="m 159.32896,34.352062 0,0 z m 28.47049,0 -1.89047,-1.625805 q -1.43675,0.756188 -3.10037,1.209902 -1.6258,0.415903 -3.44066,0.415903 l -6.69227,0 q -2.87351,0 -5.33112,-1.058664 -2.41981,-1.096473 -4.23466,-2.949135 -1.77704,-1.890471 -2.7979,-4.461512 -0.98304,-2.571041 -0.98304,-5.557986 0,-3.024754 0.98304,-5.520176 1.02086,-2.495422 2.7979,-4.234655 1.81485,-1.7770433 4.23466,-2.7222789 2.45761,-0.9830451 5.33112,-0.9830451 l 6.69227,0 q 2.98695,0 5.44456,0.9830451 2.49542,0.983045 4.27247,2.7600879 1.77704,1.777043 2.76008,4.272465 0.98305,2.457613 0.98305,5.444557 0,3.024754 -1.02086,5.595795 -0.98304,2.533232 -2.79789,4.423703 l 5.17989,4.007799 -6.3898,0 z m -13.98948,-11.342827 6.35198,0 5.10427,4.310274 q 1.28552,-1.209902 2.0039,-2.949135 0.75619,-1.739234 0.75619,-3.818752 0,-1.928281 -0.64276,-3.554086 -0.64276,-1.663615 -1.81485,-2.835707 -1.13428,-1.172092 -2.72228,-1.814852 -1.588,-0.68057 -3.47847,-0.68057 l -6.69227,0 q -1.85266,0 -3.44065,0.68057 -1.55019,0.64276 -2.68447,1.814852 -1.13428,1.172092 -1.77705,2.797898 -0.64276,1.625805 -0.64276,3.591895 0,1.928281 0.64276,3.591895 0.64277,1.663615 1.77705,2.873517 1.13428,1.172092 2.68447,1.852662 1.58799,0.680569 3.44065,0.680569 l 6.69227,0 q 1.1721,0 2.382,-0.302475 l -7.93998,-6.238555 z"
       style="fill:#1c3ed3;fill-opacity:1"
       id="path4172" />
    <path
       d="m 196.33494,34.352062 0,0 z m 24.99203,-27.487452 4.68836,0 0,15.350627 q 0,3.175991 -0.8318,5.557985 -0.83181,2.344185 -2.60885,3.894371 -1.77705,1.550186 -4.61275,2.306375 -2.7979,0.756188 -6.8057,0.756188 -3.96999,0 -6.8057,-0.756188 -2.79789,-0.756189 -4.57494,-2.306375 -1.77704,-1.550186 -2.60885,-3.894371 -0.8318,-2.381994 -0.8318,-5.557985 l 0,-15.350627 4.95303,0 0,15.350627 q 0,2.079518 0.49152,3.554086 0.52933,1.474567 1.66362,2.419803 1.17209,0.945236 3.10037,1.398949 1.92828,0.415903 4.76399,0.415903 2.83571,0 4.76399,-0.415903 1.92828,-0.453713 3.06256,-1.398949 1.17209,-0.945236 1.66361,-2.419803 0.52934,-1.474568 0.52934,-3.554086 l 0,-15.350627 z"
       style="fill:#1c3ed3;fill-opacity:1"
       id="path4174" />
    <path
       d="m 226.13525,34.352062 0,0 z m 30.51221,0 -4.12123,-6.919125 -13.00644,0 2.26857,-3.89437 8.4315,0 -6.12513,-10.284164 -12.47711,21.097659 -5.48237,0 15.80434,-26.3153598 q 0.41591,-0.7183791 0.98305,-1.1342828 0.56714,-0.4159037 1.36114,-0.4159037 0.794,0 1.32333,0.4159037 0.56714,0.4159037 0.98304,1.1342828 l 15.84215,26.3153598 -5.78484,0 z"
       style="fill:#1c3ed3;fill-opacity:1"
       id="path4176" />
    <path
       d="m 265.35426,34.352062 0,0 z m 25.52137,0 -6.95694,-7.637504 -10.28416,0 0,-4.234655 11.45625,0 q 2.60885,0 3.93218,-1.398949 1.32333,-1.436758 1.32333,-4.121227 0,-2.68447 -1.39895,-3.96999 -1.36113,-1.32333 -3.85656,-1.32333 l -14.97253,0 0,22.685655 -4.76399,0 0,-27.487452 19.73652,0 q 2.34419,0 4.19685,0.7183791 1.85266,0.6805696 3.13818,2.0038995 1.28552,1.2855204 1.96609,3.1381824 0.68057,1.852662 0.68057,4.159037 0,3.440657 -1.51238,5.784842 -1.47456,2.306375 -4.15903,3.327229 l 8.28026,8.355883 -6.80569,0 z"
       style="fill:#1c3ed3;fill-opacity:1"
       id="path4178" />
    <path
       d="m 297.99326,34.352062 0,0 z m 10.4354,0 0,-22.685655 -10.4354,0 0,-4.801797 25.6726,0 0,4.801797 -10.4354,0 0,22.685655 -4.8018,0 z"
       style="fill:#1c3ed3;fill-opacity:1"
       id="path4180" />
    <path
       d="m 326.86842,34.352062 0,0 z m 0,0 0,-27.487452 24.53832,0 0,4.801797 -19.77433,0 0,17.883858 19.81214,0 0,4.801797 -24.57613,0 z m 8.28027,-11.947778 0,-4.045609 15.2372,0 0,4.045609 -15.2372,0 z"
       style="fill:#1c3ed3;fill-opacity:1"
       id="path4182" />
    <path
       d="m 355.59471,34.352062 0,0 z m 25.52136,0 -6.95693,-7.637504 -10.28416,0 0,-4.234655 11.45625,0 q 2.60885,0 3.93218,-1.398949 1.32333,-1.436758 1.32333,-4.121227 0,-2.68447 -1.39895,-3.96999 -1.36114,-1.32333 -3.85656,-1.32333 l -14.97253,0 0,22.685655 -4.76399,0 0,-27.487452 19.73652,0 q 2.34419,0 4.19685,0.7183791 1.85266,0.6805696 3.13818,2.0038995 1.28552,1.2855204 1.96609,3.1381824 0.68057,1.852662 0.68057,4.159037 0,3.440657 -1.51238,5.784842 -1.47456,2.306375 -4.15903,3.327229 l 8.28026,8.355883 -6.8057,0 z"
       style="fill:#1c3ed3;fill-opacity:1"
       id="path4184" />
    <path
       d="m 390.4503,34.352062 0,0 z m 0,0 0,-27.487452 4.8018,0 0,22.685655 18.48881,0 0,4.801797 -23.29061,0 z"
       style="fill:#1c3ed3;fill-opacity:1"
       id="path4186" />
    <path
       d="m 409.53224,34.352062 0,0 z m 14.59444,0 0,-10.435401 -14.59444,-17.052051 6.46541,0 10.70007,12.666157 10.73788,-12.666157 6.12513,0 -14.63225,17.052051 0,10.435401 -4.8018,0 z"
       style="fill:#1c3ed3;fill-opacity:1"
       id="path4188" />
  </g>
  <g
     inkscape:groupmode="layer"
     id="layer1"
     inkscape:label="Layer 1"
     style="display:none">
    <text
       xml:space="preserve"
       style="font-style:normal;font-weight:normal;line-height:0%;font-family:sans-serif;letter-spacing:0px;word-spacing:0px;writing-mode:lr-tb;fill:#000000;fill-opacity:0.675079;stroke:none;stroke-width:1px;stroke-linecap:butt;stroke-linejoin:miter;stroke-opacity:1"
       x="-1.5888885"
       y="34.366245"
       id="text3348-0"
       transform="scale(0.80882918,1.236355)"><tspan
         sodipodi:role="line"
         id="tspan3350-5"
         x="-1.5888885"
         y="34.366245"
         style="font-style:normal;font-variant:normal;font-weight:normal;font-stretch:normal;font-size:37.8094px;line-height:1.25;font-family:'Good Times';-inkscape-font-specification:'Good Times';fill:#000000;fill-opacity:0.675079">haven<tspan
   style="fill:#1c3ed3;fill-opacity:1"
   id="tspan4152-6">quarterly</tspan></tspan></text>
  </g>
</svg>
