<?xml version="1.0" encoding="UTF-8" standalone="no"?>
<svg
   xmlns:osb="http://www.openswatchbook.org/uri/2009/osb"
   xmlns:dc="http://purl.org/dc/elements/1.1/"
   xmlns:cc="http://creativecommons.org/ns#"
   xmlns:rdf="http://www.w3.org/1999/02/22-rdf-syntax-ns#"
   xmlns:svg="http://www.w3.org/2000/svg"
   xmlns="http://www.w3.org/2000/svg"
   xmlns:sodipodi="http://sodipodi.sourceforge.net/DTD/sodipodi-0.dtd"
   xmlns:inkscape="http://www.inkscape.org/namespaces/inkscape"
   width="246.25"
   height="60.92725"
   viewBox="0 0 246.24999 60.927249"
   version="1.1"
   id="svg2"
   inkscape:version="1.0.2-2 (e86c870879, 2021-01-15)"
   sodipodi:docname="logo.svg">
  <metadata
     id="metadata16">
    <rdf:RDF>
      <cc:Work
         rdf:about="">
        <dc:format>image/svg+xml</dc:format>
        <dc:type
           rdf:resource="http://purl.org/dc/dcmitype/StillImage" />
        <dc:title>logo</dc:title>
      </cc:Work>
    </rdf:RDF>
  </metadata>
  <sodipodi:namedview
     pagecolor="#ffffff"
     bordercolor="#666666"
     borderopacity="1"
     objecttolerance="10"
     gridtolerance="10"
     guidetolerance="10"
     inkscape:pageopacity="0"
     inkscape:pageshadow="2"
     inkscape:window-width="1920"
     inkscape:window-height="1017"
     id="namedview14"
     showgrid="false"
     inkscape:zoom="5"
     inkscape:cx="118.63753"
     inkscape:cy="17.140691"
     inkscape:window-x="-8"
     inkscape:window-y="-8"
     inkscape:window-maximized="1"
     inkscape:current-layer="layer7"
     units="px"
     showguides="false"
     inkscape:guide-bbox="true"
     fit-margin-top="3.5"
     fit-margin-left="0.2"
     fit-margin-right="0.2"
     fit-margin-bottom="1"
     inkscape:document-rotation="0">
    <sodipodi:guide
       position="20.840036,19.546297"
       orientation="0,1"
       id="guide4165" />
    <sodipodi:guide
       position="115.99336,1.2282701"
       orientation="0,1"
       id="guide4187" />
    <sodipodi:guide
       position="104.68549,17.291798"
       orientation="0,1"
       id="guide4189" />
    <sodipodi:guide
       position="125.71602,21.307679"
       orientation="0,1"
       id="guide4191" />
    <sodipodi:guide
       position="123.91944,57.239249"
       orientation="0,1"
       id="guide4193" />
    <sodipodi:guide
       position="59.250128,7.2909331"
       orientation="1,0"
       id="guide4195" />
    <sodipodi:guide
       position="238.29796,3.2556321"
       orientation="1,0"
       id="guide4197" />
  </sodipodi:namedview>
  <!-- Generator: Sketch 51.3 (57544) - http://www.bohemiancoding.com/sketch -->
  <title
     id="title4">logo</title>
  <desc
     id="desc6">...</desc>
  <defs
     id="defs8">
    <linearGradient
       id="linearGradient3983"
       osb:paint="solid">
      <stop
         style="stop-color:#535353;stop-opacity:1;"
         offset="0"
         id="stop3981" />
    </linearGradient>
    <filter
       inkscape:collect="always"
       style="color-interpolation-filters:sRGB"
       id="filter2027"
       x="-0.016821183"
       width="1.0336424"
       y="-0.016931644"
       height="1.0338633">
      <feGaussianBlur
         inkscape:collect="always"
         stdDeviation="0.39688148"
         id="feGaussianBlur2029" />
    </filter>
  </defs>
  <g
     inkscape:groupmode="layer"
     id="layer5"
     inkscape:label="bg"
     style="display:inline">
    <path
       style="opacity:0.551282;mix-blend-mode:normal;fill:#535353;stroke-width:0.31178;filter:url(#filter2027)"
       d="M 23.84215,0.5629995 C 15.211085,1.9241756 7.2556259,7.684223 3.1340881,15.556399 c -4.2148935,8.050484 -4.2395567,17.882056 -0.064749,25.809366 3.0596775,5.809848 7.7990119,10.259675 13.7223749,12.884128 4.417649,1.957321 6.145661,2.290746 11.800016,2.276831 4.562528,-0.01186 5.181267,-0.08104 7.683295,-0.866281 9.862106,-3.095316 16.564885,-9.870764 19.603626,-19.816166 0.633148,-2.072209 0.72189,-3.027705 0.699833,-7.535014 -0.02296,-4.691286 -0.10342,-5.405151 -0.882533,-7.830357 C 53.02093,12.152152 46.98257,5.5940953 38.887325,2.2236227 34.793544,0.519165 28.514592,-0.1738797 23.84215,0.5629995 Z"
       id="path63"
       transform="matrix(1.0643424,0,0,1.0643424,0.00286412,-0.01741114)" />
  </g>
  <g
     inkscape:groupmode="layer"
     id="layer8"
     inkscape:label="head bg"
     style="display:inline;mix-blend-mode:normal">
    <path
       style="opacity:1;fill:#535353;fill-opacity:1;stroke:#535353;stroke-width:0.0332607;stroke-linejoin:miter;stroke-miterlimit:4;stroke-dasharray:none;stroke-dashoffset:0;stroke-opacity:1"
       d="m 29.388745,56.517512 c 2.505028,0 -4.167052,-1.135483 -6.736395,-1.892643 -1.112755,-0.327918 -2.005493,-0.308922 -3.79667,-1.344455 l -0.837572,-0.484225 0.547901,0.0055 c 0.499423,0.005 1.7704,0.181048 2.704343,0.563223 0.364339,0.14909 0.68143,0.271072 0.704648,0.271072 0.04788,0 -0.07872,-0.0512 -0.625554,-3.966339 -0.217183,-1.554937 -0.348831,-2.921961 -0.373858,-3.169951 -0.02502,-0.247989 -0.06992,-0.465981 -0.09977,-0.484427 -0.02984,-0.01844 -0.04562,-0.04638 -0.28912,-0.02144 l -0.442732,0.04536 0.0442,0.405808 c 0.04497,0.4128 0.746518,5.479264 0.811745,5.862465 l 0.03571,0.209783 -0.41193,-0.128208 c -0.226562,-0.07051 -0.665351,-0.172399 -0.975086,-0.226412 -1.78247,-0.310838 -3.238704,0.266216 -4.440168,1.631349 -0.177102,0.201228 -0.334704,0.365868 -0.350227,0.365868 -0.01552,0 -0.168915,-0.404117 -0.34087,-0.898039 -0.713534,-2.049547 -1.378888,-3.420463 -2.431084,-4.478594 -0.445375,-0.447896 -0.795055,-0.756916 -1.17631,-0.939627 -0.270972,-0.12986 -0.558496,-0.23611 -0.638941,-0.23611 -0.17526,0 -0.198881,-0.09489 -0.256672,-1.031081 C 9.901411,44.747184 9.5774973,43.101603 9.218645,42.006123 8.9025873,41.041285 8.6455828,40.472355 7.9870498,39.633266 6.6859199,37.975397 5.9290316,36.540679 5.9937694,35.654582 6.0375732,35.055019 6.281483,34.751601 7.2459035,33.714735 l 1.0579043,-1.137372 0.413351,0.113148 c 1.2523036,0.342797 2.0726992,1.03227 2.5566362,2.369409 0.04212,0.116357 0.114452,0.06213 0.576809,-0.432389 1.089089,-1.164847 1.191636,-1.592074 1.118396,-2.3913 -0.02238,-0.244296 -0.06115,-0.516001 -0.08613,-0.603792 -0.04498,-0.158057 -0.0419,-0.159169 0.314179,-0.113794 0.841268,0.107204 1.59726,0.522435 2.728478,1.998493 0.505933,0.660161 0.634161,0.964448 0.667679,0.901924 0.152873,-0.285157 0.621832,-1.810376 0.733064,-2.384184 0.206919,-1.067416 0.04025,-2.231123 -0.226425,-2.857166 -0.04433,-0.104071 -0.167275,-0.238881 0.140322,-0.07681 0.67999,0.152719 1.845145,0.450946 3.498765,1.769099 0.579703,0.462099 1.061314,0.83054 1.070247,0.818757 0.0089,-0.01178 0.100367,-0.230966 0.203195,-0.487073 0.428518,-1.067323 0.122771,-2.348793 -0.591441,-4.006565 -0.106742,-0.24776 -0.106652,-0.248164 0.06446,-0.29111 0.250808,-0.06295 0.91996,8.99e-4 1.243101,0.162218 0.155376,0.07757 0.574241,0.363954 0.930811,0.636416 0.533589,0.407726 1.496289,1.021119 1.602612,1.021119 0.09106,0 0.266086,-0.898939 0.259053,-1.330428 -0.01204,-0.738412 -0.278462,-1.363661 -0.897347,-2.786468 -0.02231,-0.05128 0.10422,-0.04701 0.420469,0.01419 0.586654,0.113528 1.779225,0.11216 2.423638,-0.0028 0.911086,-0.162501 2.053286,-0.507775 2.053286,-0.620683 0,-0.0872 0.08907,-0.09628 0.612189,-0.06239 1.582944,0.102549 2.746271,1.175623 4.080945,4.223268 0.217104,0.495742 0.450743,1.066697 0.42265,1.090937 -0.848859,0.732394 -1.327939,1.078641 -1.945779,1.207048 -0.191443,0.03979 -0.365442,0.100432 -0.386664,0.134776 -0.0517,0.08364 0.0124,0.398422 0.09499,0.398422 0.03589,0 0.300034,-0.06335 0.58698,-0.140776 0.539313,-0.145522 0.940362,-0.442004 1.439244,-0.823036 l 0.405441,-0.309666 0.361712,0.73465 c 0.198943,0.404058 0.468714,0.96707 0.569006,1.11902 l 0.182349,0.276271 -0.149088,0.121018 c -0.482623,0.391755 -0.929866,0.671337 -1.390466,0.779924 -0.273071,0.06437 -0.51728,0.114591 -0.51728,0.157322 0,0.125125 0.117137,0.392838 0.164495,0.391594 0.02386,-5.98e-4 0.252927,-0.0558 0.509034,-0.122624 0.543818,-0.141878 0.658744,-0.24733 1.088155,-0.575107 0.17047,-0.130122 0.507709,-0.394859 0.538457,-0.386259 0.03801,0.01064 0.177408,0.172098 0.2473,0.249455 0.11545,0.127783 0.441464,0.506979 0.744496,0.826727 l 0.700761,0.739417 -0.387362,0.308199 c -0.492895,0.392166 -0.64401,0.652533 -1.182055,0.791698 -0.235201,0.06084 -0.557767,0.132467 -0.660917,0.131465 -0.01638,-1.59e-4 -0.02985,0.04083 0.01552,0.19227 0.0784,0.261692 0.09266,0.27316 0.287327,0.231164 0.820258,-0.176952 1.093647,-0.415524 1.760734,-0.968783 l 0.479088,-0.397339 0.581097,0.428344 c 0.482146,0.355404 1.12949,0.704374 2.69056,1.757501 0.212789,0.143551 -0.737383,1.3879 -1.721915,2.046242 -1.182914,0.790999 -2.776923,1.070428 -3.925656,1.229473 l -0.299347,0.04145 0.731736,-0.359908 c 0.253867,-0.124866 0.512534,-0.246346 0.722284,-0.336212 0.20975,-0.08986 0.307037,-0.191242 0.382498,-0.206804 0.03061,-0.0063 -2.15785,-1.370232 -2.61579,-1.609255 -0.05656,-0.02952 -0.306947,0.398408 -0.22848,0.429648 0.177867,0.07082 0.459208,0.338418 0.949698,0.626135 l 0.891799,0.52312 -0.227703,0.09767 c -0.68532,0.293974 -2.223378,1.110494 -2.540208,1.154935 -0.04117,0.0057 0.378891,0.333437 0.939614,0.763902 0.560723,0.430467 1.190391,0.912976 1.236655,0.95537 0.0653,0.05984 -0.198795,0.209004 -1.180755,0.666904 -0.695679,0.324403 -1.327233,0.546738 -1.327233,0.570301 0,0.02356 0.491934,0.355331 1.093188,0.737264 0.601252,0.381934 1.139244,0.713139 1.114233,0.736011 -0.02501,0.02287 -0.426311,0.270186 -0.993405,0.519094 -0.567095,0.24891 -1.005831,0.466042 -1.020703,0.477436 -0.02009,0.0154 -0.176478,0.312445 -0.08015,0.499119 0.01964,0.03805 3.005755,-1.373122 3.024221,-1.428522 0.01138,-0.03412 -0.101581,-0.130757 -0.251008,-0.214741 -0.149428,-0.08399 -0.262135,-0.16225 -0.250459,-0.173925 0.01168,-0.01168 0.33544,-0.100793 0.719478,-0.19803 2.900196,-0.734354 4.981389,-1.743055 6.525055,-3.308291 1.065086,-1.079967 1.809482,-2.447278 2.351999,-4.090739 l 0.279446,-0.846535 0.630578,-0.650197 c 1.774004,-1.829194 2.512103,-3.860361 2.047454,-5.798396 -0.194986,-0.813346 -0.587032,-1.985856 -0.866287,-2.590897 -0.541724,-1.173714 -1.395617,-2.108906 -2.397318,-2.696474 -0.502623,-0.294824 -0.513,-0.306379 -0.68688,-0.764996 -0.62575,-1.650432 -1.651949,-3.800939 -2.512635,-5.312576 -0.278365,-0.488897 -0.494102,-0.90092 -0.479414,-0.915608 0.01469,-0.01469 0.397971,0.0043 0.85174,0.04211 3.76085,0.313683 6.36764,1.251819 8.388168,3.271472 0.971683,0.971263 1.705503,1.863286 2.386406,3.21341 0.650379,1.289601 0.993857,2.424453 1.161096,3.453394 0.782872,4.816637 0.545507,8.724664 -0.805897,11.805467 -0.595974,1.358643 -1.352526,2.495371 -2.423171,3.566014 -2.56164,2.56164 -6.333937,3.928964 -11.527771,4.308973 -1.845405,0.135021 -5.38435,0.04978 -6.441455,-0.162139 -0.263712,-0.05287 -0.76193,-0.07111 -1.105127,-0.09612 l -0.513395,-0.03742 -0.0363,0.449019 c -0.01997,0.246962 0.0082,0.315006 0.01691,0.323982 0.0087,0.0089 0.447496,0.0621 0.975127,0.118074 1.510143,0.16018 1.59841,0.258714 3.426544,1.773659 1.914808,1.586771 3.787876,2.408607 5.950865,2.707284 l 0.314943,0.04349 -0.341789,0.308578 c -1.635713,1.476777 -5.155379,3.313145 -7.131485,3.786834 -1.426347,0.341907 -2.149403,0.618484 -3.856497,0.601629 -0.622934,-0.0062 -1.545591,-0.03427 -1.398693,-0.03427 z M 23.874171,36.026288 c -0.05457,-0.109139 0.155443,0.0037 0.155443,-0.04981 0,-0.07907 0.05935,-0.08762 0.315977,-0.04551 1.263999,0.207368 2.152495,-0.0083 2.463869,-0.890823 0.11261,-0.319174 0.06174,-1.540335 -0.03616,-2.056547 -0.03676,-0.193849 -0.05345,-0.365841 -0.03709,-0.382204 0.01636,-0.01636 0.170075,-0.0038 0.239467,0.11958 l 0.0933,0.16596 0.388651,0.132691 0.209875,-0.212389 -0.166304,-0.13894 c -0.70584,-0.589703 -1.902823,-0.598798 -2.962316,-0.13024 -0.474091,0.209666 -0.917574,0.627589 -1.112744,1.061602 -0.124593,0.277066 -0.155206,0.458722 -0.153601,0.911462 0.0021,0.584697 -0.03255,0.732799 0.253789,1.384477 0.178313,0.405834 0.419635,0.274277 0.347843,0.130694 z"
       id="path1993"
       sodipodi:nodetypes="ssscssssssscsscssssssssssssscsssssssssscsscsssssssscssscscssscsscssscssssscsssssscsssscsssssscsssssssssssssscsscscsssssssssssssscscssscsscsssscsssscccssscsss" />
    <path
       style="opacity:1;mix-blend-mode:normal;fill:#2b2b2b;fill-opacity:1;stroke:#535353;stroke-width:0.0235189;stroke-linejoin:miter;stroke-miterlimit:4;stroke-dasharray:none;stroke-dashoffset:0;stroke-opacity:1"
       d="m 11.266132,33.706092 c 0,-0.347218 -0.642995,-0.708152 -0.992017,-0.931675 -0.3048599,-0.19524 -0.8581111,-0.435751 -1.2649477,-0.549904 -0.2383736,-0.06688 -0.4463277,-0.04019 -0.4463277,-0.123629 0,-0.05552 -0.188841,-0.71569 -0.2773656,-1.141845 -1.0392473,-5.002928 0.4079625,-8.599578 3.974264,-10.397063 2.218108,-1.117969 5.73053,-1.362207 8.707106,-0.911064 0.788889,0.119567 1.382407,0.259077 1.818511,0.427451 0.409376,0.158054 0.578029,0.325809 1.223658,1.217144 0.2155,0.297514 0.540761,0.739983 0.722801,0.983267 0.644548,0.861389 1.816522,1.432732 3.045737,1.670778 l 0.305745,0.05921 -0.188151,0.04627 c -0.103486,0.02545 -0.508681,0.14739 -0.961419,0.14904 -0.953466,0.0035 -1.480714,0.0087 -2.781523,-0.382856 -0.463508,-0.139513 -0.852135,-0.244267 -0.863613,-0.232789 -0.01147,0.01147 0.18017,0.408366 0.425886,0.881973 0.736787,1.420121 1.020663,2.351401 1.111564,3.022441 l 0.03453,0.254881 -0.1185,-0.09024 c -1.195215,-0.910239 -1.516448,-1.186076 -2.028859,-1.319541 -0.31735,-0.08266 -0.896284,-0.09096 -1.246035,-0.01785 -0.238597,0.04986 -0.839776,0.235673 -0.916878,0.303642 -0.02029,0.01788 0.110679,0.334676 0.291037,0.703982 0.336194,0.688403 0.55874,1.704216 0.683641,2.312855 0.08931,0.435214 0.137612,1.235084 0.07964,1.318961 -0.03399,0.04917 -0.158694,-0.02759 -0.551704,-0.339614 -1.587593,-1.260437 -2.797081,-2.172269 -3.530654,-2.227748 -0.555422,-0.04201 -0.831624,0.19066 -1.066478,0.654119 l -0.114554,0.226061 0.139579,0.220093 c 0.260521,0.410799 0.307517,0.627751 0.304549,1.405915 -0.0027,0.69228 -0.07736,1.209769 -0.266803,1.847556 l -0.142925,0.33428 -0.284864,-0.318832 c -0.887549,-0.993378 -1.507382,-1.674788 -2.479161,-1.807619 -0.412025,-0.05632 -0.534003,-0.119517 -1.164592,0.0042 -0.319766,0.0627 -0.384917,0.08994 -0.361318,0.151029 0.01584,0.041 0.103252,0.317955 0.194268,0.61547 0.206714,0.675724 0.228803,1.094289 0.07447,1.411131 -0.105839,0.217278 -0.836457,0.808915 -0.895794,0.806743 -0.01823,-6.68e-4 -0.192509,-0.08001 -0.192509,-0.236134 z"
       id="path1995"
       sodipodi:nodetypes="sssscsssssscscsssscsscsssscsscscscsssssssss" />
    <path
       style="opacity:1;fill:#535353;fill-opacity:1;stroke:#535353;stroke-width:0.0235189;stroke-linejoin:miter;stroke-miterlimit:4;stroke-dasharray:none;stroke-dashoffset:0;stroke-opacity:1"
       d="m 38.594069,22.754924 c -2.77795,-0.230267 -4.615987,-0.419584 -6.2325,-0.732259 -2.315427,-0.447862 -3.964569,-1.016492 -5.662381,-1.866552 -2.152463,-1.077697 -3.575074,-2.368 -4.353005,-3.948161 -0.512144,-1.040285 -0.816719,-2.033043 -0.77792,-3.356547 0.02789,-0.951323 0.122978,-1.528556 0.411778,-2.499652 0.529297,-1.7797781 1.925749,-4.2661558 3.685988,-6.7625103 0.240156,-0.3405864 0.310242,-0.4140268 0.310497,-0.325355 7.75e-4,0.2691702 0.289895,1.2430881 0.506129,1.687402 0.278228,0.5716958 0.693898,1.0275892 1.163171,1.2757277 l 0.293775,0.15534 -0.342163,0.3854153 c -0.889473,1.0019104 -1.700975,2.2786009 -2.069384,3.2292524 -0.3335,0.8605709 -0.414643,1.8545099 -0.218552,2.6031659 0.563465,2.151247 2.660995,3.533192 6.888561,4.170513 1.345242,0.2028 2.732574,0.24996 4.227036,0.255366 l 1.394139,0.005 0.495301,0.940754 c 0.638485,1.21271 1.020283,2.110403 1.458744,3.07646 0.346559,0.763569 0.740593,1.780443 0.772851,1.82439 0.141114,0.192242 -0.205924,0.02695 -1.952065,-0.117793 z"
       id="path1997"
       sodipodi:nodetypes="cssssssssscssssccssscc" />
    <ellipse
       style="opacity:0.551282;fill:#2b2b2b;fill-opacity:1;stroke:#535353;stroke-width:0.532171;stroke-linejoin:miter;stroke-miterlimit:4;stroke-dasharray:none;stroke-dashoffset:0;stroke-opacity:1"
       id="path3987"
       cx="25.538767"
       cy="34.582031"
       rx="0.45733464"
       ry="0.34092218" />
  </g>
  <g
     inkscape:groupmode="layer"
     id="layer7"
     inkscape:label="tusks white 2"
     style="display:inline">
    <path
       style="display:inline;fill:#e6e6e6;fill-opacity:1;stroke:#000000;stroke-width:0.0511671;stroke-linejoin:miter;stroke-miterlimit:4;stroke-dasharray:none;stroke-dashoffset:0;stroke-opacity:1"
       d="M 46.82387,17.787374 C 45.961439,15.791973 46.359358,16.769213 44.921769,14.803968 43.484181,12.838722 41.724448,10.841302 39.573439,8.7172012 37.422813,6.5934783 36.271827,5.6870172 34.057634,4.3732249 33.442681,4.0083417 32.968835,3.7027328 33.004643,3.6940925 c 0.03582,-0.00862 0.31039,0.034559 0.610171,0.095972 3.833788,0.7854794 9.564473,5.0333679 13.511539,10.0154725 1.405765,1.774398 2.859997,4.137173 3.757428,6.104911 -1.897658,-1.355857 -2.422504,-1.199165 -4.059911,-2.12307 z"
       id="path1465-6"
       sodipodi:nodetypes="csssscscc" />
    <path
       style="fill:#e6e6e6;fill-opacity:1;stroke:#000000;stroke-width:0.00831517;stroke-linejoin:miter;stroke-miterlimit:4;stroke-dasharray:none;stroke-dashoffset:0;stroke-opacity:1"
       d="m 24.794925,35.566648 c -0.360739,-0.05177 -0.722156,-0.163933 -0.885437,-0.274779 -0.05337,-0.03623 -0.121964,-0.07489 -0.152434,-0.0859 -0.03272,-0.01182 -0.0586,-0.0342 -0.06323,-0.05461 -0.08277,-0.365389 -0.102273,-0.563589 -0.07837,-0.796499 0.02222,-0.216542 0.05382,-0.331591 0.144729,-0.526935 0.279664,-0.600945 0.968936,-1.014553 1.854676,-1.112928 0.173577,-0.01928 0.497087,-0.02372 0.557032,-0.0077 0.04175,0.0112 0.05531,0.04967 0.146165,0.414581 0.166037,0.666937 0.199581,1.225236 0.09788,1.628979 -0.101698,0.403723 -0.39098,0.68788 -0.804574,0.790333 -0.184313,0.04566 -0.587869,0.05822 -0.816426,0.02542 z"
       id="path1529" />
  </g>
  <g
     inkscape:groupmode="layer"
     id="layer4"
     inkscape:label="head"
     style="display:inline">
    <path
       id="Unnamed-1"
       style="color:#000000;font-style:normal;font-variant:normal;font-weight:normal;font-stretch:normal;font-size:medium;line-height:normal;font-family:sans-serif;font-variant-ligatures:normal;font-variant-position:normal;font-variant-caps:normal;font-variant-numeric:normal;font-variant-alternates:normal;font-variant-east-asian:normal;font-feature-settings:normal;font-variation-settings:normal;text-indent:0;text-align:start;text-decoration:none;text-decoration-line:none;text-decoration-style:solid;text-decoration-color:#000000;letter-spacing:normal;word-spacing:normal;text-transform:none;writing-mode:lr-tb;direction:ltr;text-orientation:mixed;dominant-baseline:auto;baseline-shift:baseline;text-anchor:start;white-space:normal;shape-padding:0;shape-margin:0;inline-size:0;clip-rule:nonzero;display:inline;overflow:visible;visibility:visible;isolation:auto;mix-blend-mode:normal;color-interpolation:sRGB;color-interpolation-filters:linearRGB;solid-color:#000000;solid-opacity:1;vector-effect:none;fill:#000000;fill-opacity:1;fill-rule:nonzero;stroke:#000000;stroke-width:0.798257;stroke-linecap:butt;stroke-linejoin:miter;stroke-miterlimit:4;stroke-dasharray:none;stroke-dashoffset:0;stroke-opacity:1;color-rendering:auto;image-rendering:auto;shape-rendering:auto;text-rendering:auto;enable-background:accumulate;stop-color:#000000"
       d="m 26.249714,1.9948613 c -0.449637,0.701695 -1.437537,1.9697578 -2.425952,3.548501 -0.988418,1.5787421 -1.977754,3.470204 -2.434267,5.4339667 -0.456513,1.963764 -0.377662,4.001897 0.77539,5.858041 1.153053,1.856146 3.374536,3.525577 7.190548,4.766674 l 0.0021,0.0021 c 5.199693,1.500163 9.399184,1.282674 12.545522,1.791921 1.573167,0.254622 2.880549,0.689384 3.924762,1.604828 1.04421,0.915444 1.830969,2.315365 2.351116,4.513062 -0.52352,-2.211104 -1.213096,-3.662314 -2.278358,-4.596214 -1.065491,-0.9341 -2.395734,-1.375626 -3.978811,-1.631853 -3.165795,-0.512397 -7.351889,-0.293268 -12.533049,-1.787762 -3.800504,-1.236055 -5.99731,-2.893803 -7.132341,-4.720941 -1.135034,-1.827136 -1.212859,-3.828375 -0.760839,-5.77281 0.45202,-1.9444366 1.436871,-3.8296203 2.421795,-5.4027854 0.933723,-1.491387 1.836325,-2.6655704 2.319934,-3.3946703 -0.07283,1.1710908 0.136684,2.1517658 0.561274,2.8396323 0.424467,0.6876691 1.061424,1.0758737 1.798156,1.0913667 -2.251746,2.3089684 -3.167459,4.1464737 -3.174318,5.6106647 -0.0069,1.48196 0.919797,2.565068 2.284595,3.334385 2.729595,1.538636 7.227742,1.863687 9.762016,1.752423 3.62292,-0.22172 7.140537,-0.192822 10.111253,1.031082 2.970022,1.223617 5.39868,3.637488 6.860019,8.209157 1.059742,5.666711 0.632312,9.843799 -0.715105,12.909309 -1.34772,3.066198 -3.615579,5.024383 -6.250933,6.253012 -4.589396,2.139622 -10.28797,2.056715 -14.13164,1.725399 -0.466772,-0.130071 -0.983703,-0.195307 -1.592356,-0.155909 l -0.0042,0.110175 c 0.477785,0.05361 1.010723,0.106642 1.579883,0.15591 0.347573,0.0982 0.668016,0.23041 0.966639,0.399129 0.692109,0.391031 1.29245,0.941665 1.976933,1.511282 1.350814,1.124124 3.040048,2.306161 6.39437,2.417638 -1.673829,1.702251 -4.226503,3.81657 -7.801713,4.822801 -2.718893,0.765223 -8.415852,0.01111 -13.408277,-1.592403 4.794811,1.673556 9.376668,2.399071 13.43738,1.698421 3.745606,-0.646279 6.26201,-3.21393 7.940992,-4.937135 l 0.08938,-0.09147 -0.126807,-0.0021 c -3.420936,-0.0829 -5.090883,-1.266098 -6.454654,-2.401008 -0.681885,-0.567454 -1.286689,-1.124382 -1.993564,-1.523755 -0.177963,-0.100548 -0.361349,-0.190305 -0.555037,-0.268164 3.83732,0.299896 9.279511,0.30504 13.728354,-1.769054 2.653937,-1.237293 4.945745,-3.21466 6.304981,-6.307061 1.359238,-3.0924 1.786895,-7.296224 0.723421,-12.979988 l -0.0021,-0.0021 v -0.0042 c -1.468656,-4.597134 -3.92622,-7.04459 -6.924412,-8.279814 -2.997953,-1.235124 -6.531603,-1.261355 -10.159065,-1.039396 -2.519234,0.110603 -7.011437,-0.22139 -9.70173,-1.737873 -1.345146,-0.758242 -2.23519,-1.803578 -2.228467,-3.238759 0.0067,-1.435185 0.918064,-3.278553 3.220052,-5.6169018 l 0.09771,-0.097703 -0.139279,0.00416 C 27.961587,6.0652401 27.323254,5.6848095 26.892062,4.9862456 26.460869,4.2876819 26.242525,3.2690269 26.351575,2.0302007 Z M 48.178911,29.513934 c 0.431202,1.63283 -0.531287,3.761743 -1.949909,5.244796 -0.709311,0.741527 -1.53145,1.322023 -2.340722,1.600671 -0.809273,0.278648 -1.60157,0.258172 -2.272122,-0.193327 l -0.06028,0.09147 c 0.702684,0.473133 1.536,0.492188 2.367746,0.205801 0.831745,-0.286386 1.665521,-0.876191 2.384376,-1.627696 1.437709,-1.503009 2.318583,-3.626526 1.870915,-5.321712 z M 18.996803,19.022261 c -1.475165,-0.04157 -3.136324,0.08926 -4.72302,0.521777 -2.115592,0.576702 -4.097912,1.691455 -5.3113175,3.650363 -1.2110485,1.9551 -1.649941,4.747133 -0.7026324,8.664412 -0.2747738,0.595632 -0.730701,1.047525 -1.1890701,1.486337 -0.4622389,0.442517 -0.9271091,0.871424 -1.1953064,1.426053 -0.2681974,0.554627 -0.3343499,1.233454 -0.00831,2.15571 0.3256283,0.921112 1.0402049,2.089073 2.3303279,3.642045 1.2533462,2.147572 1.3102194,4.577858 1.5299922,7.462871 l 0.00416,0.06028 0.058206,-0.01043 c 0.7357483,-0.132669 1.6705273,0.417084 2.5569163,1.594435 0.88639,1.177352 1.722185,2.973245 2.270043,5.296767 l 0.02286,0.09978 0.07068,-0.07483 c 0.719152,-0.782049 1.278221,-1.704123 2.215995,-2.201443 0.937775,-0.49732 2.262237,-0.583559 4.533849,0.32845 l 0.08731,0.03534 -0.01247,-0.09351 c -0.27487,-2.220483 -0.82416,-5.773896 -0.933379,-6.766474 l -0.108097,0.01247 c 0.10902,0.990794 0.643032,4.455453 0.920906,6.677085 -2.232678,-0.879843 -3.579982,-0.799089 -4.538007,-0.29103 -0.940112,0.498559 -1.502478,1.391251 -2.180655,2.147394 C 14.14482,52.562414 13.319015,50.783014 12.434052,49.607554 11.557231,48.442915 10.621512,47.861143 9.8314012,47.967386 9.6153227,45.10909 9.5549525,42.674923 8.291015,40.510753 l -0.00208,-0.0042 -0.00416,-0.0042 C 6.9962362,38.952219 6.2898862,37.791304 5.9710811,36.889494 5.652275,35.987683 5.7171966,35.348349 5.9731599,34.819016 6.2291267,34.28968 6.682517,33.869549 7.1455996,33.426224 7.6086807,32.982898 8.0812017,32.516589 8.3658516,31.889995 l 0.00831,-0.01663 -0.00416,-0.02079 C 7.4201665,27.942734 7.8591217,25.18148 9.0539248,23.252605 10.248728,21.32373 12.204973,20.221936 14.302879,19.650056 c 2.097909,-0.571881 4.33672,-0.612684 6.086709,-0.424074 0.874993,0.0943 1.628193,0.24743 2.178576,0.417837 0.275191,0.0852 0.498462,0.173531 0.661056,0.261928 0.162593,0.08841 0.260942,0.178938 0.288952,0.24322 l 0.0042,0.0083 0.0063,0.0083 c 0.982318,1.047038 1.288823,1.913069 2.026823,2.538207 0.738002,0.62514 1.893369,0.987329 4.548401,1.029003 h 0.0021 0.0021 c 0.841838,-0.0336 1.520933,0.235295 2.099581,0.704711 0.578651,0.469418 1.054123,1.139293 1.473865,1.902097 0.839484,1.52561 1.453683,3.418818 2.253413,4.797855 1.648996,2.842092 4.268325,4.133054 5.043154,4.710548 l 0.07276,-0.08731 c -0.793956,-0.591749 -3.386699,-1.86383 -5.020287,-4.679366 -0.789928,-1.362139 -1.406288,-3.254205 -2.253412,-4.793698 -0.423562,-0.769746 -0.905386,-1.45227 -1.500889,-1.935358 -0.595007,-0.482685 -1.30368,-0.765805 -2.170261,-0.731735 h -0.0021 c -2.64394,-0.04171 -3.767172,-0.400094 -4.477719,-1.001978 -0.710765,-0.602067 -1.023369,-1.469187 -2.01851,-2.529892 l 0.01043,0.01664 c -0.04752,-0.109052 -0.16448,-0.203601 -0.336764,-0.297267 -0.172284,-0.09366 -0.401984,-0.183593 -0.681845,-0.270243 -0.55972,-0.173301 -1.318624,-0.327068 -2.199364,-0.421996 -0.440369,-0.04746 -0.911464,-0.07969 -1.403186,-0.09354 z m -2.070478,33.774163 c 1.094907,0.55225 2.307574,1.038397 3.552658,1.484259 z m 3.552658,1.484259 0.15383,0.06445 c 0.276928,0.103869 0.547099,0.189676 0.821124,0.286873 -0.331518,-0.108664 -0.649108,-0.234631 -0.974954,-0.351316 z"
       sodipodi:nodetypes="csssccsscsscssscsccscscssccccsscscscccsscsscccscsccccsccsssccssssccscsssccccscccsccccccscsccccssscccssssscccscccssccccssccsccsssccccccccsc" />
  </g>
  <g
     inkscape:groupmode="layer"
     id="layer6"
     inkscape:label="tusks white"
     style="display:inline">
    <path
       style="display:inline;fill:#e6e6e6;fill-opacity:1;stroke:#000000;stroke-width:0.0511671;stroke-linejoin:miter;stroke-miterlimit:4;stroke-dasharray:none;stroke-dashoffset:0;stroke-opacity:1"
       d="m 33.980387,43.51488 c -0.02742,-0.140383 0.365757,-0.103582 -0.409404,-0.322377 -0.02054,-0.0057 0.238946,-0.155193 0.973081,-0.4753 0.734134,-0.320109 1.41794,-0.662651 1.41794,-0.690065 0,-0.02742 -0.162063,-0.236698 -0.631057,-0.678978 l -0.90962,-0.857804 0.641809,-0.03886 c 0.352091,-0.02132 2.904066,-0.325984 4.387487,-1.20316 1.077065,-0.636887 1.880807,-1.282326 2.234284,-1.794225 0.352986,-0.511182 0.892941,-1.843819 1.138321,-2.809428 0.243408,-0.957858 0.237961,-4.585381 -0.009,-6.013739 C 42.073438,24.346917 40.290348,20.067902 37.10465,14.929236 35.512038,12.360359 34.605746,11.20924 32.761434,9.4127969 32.249208,8.9138651 31.860253,8.5056482 31.89709,8.5056482 c 0.03684,0 0.293626,0.1063917 0.570645,0.2363937 3.54264,1.6627101 8.117232,7.1361381 10.785756,12.9049921 0.950408,2.054603 1.809938,4.692537 2.220845,6.815868 0.2556,1.320801 0.262632,4.501769 0.0129,5.836334 -0.708621,3.786842 -2.118398,6.345323 -5.387855,7.903839 -1.250656,0.596174 -2.315412,0.972078 -4.21128,1.430135 -0.789571,0.190767 -0.730437,0.168579 -1.491895,0.172894 -0.06637,3.77e-4 -0.154271,-0.05816 -0.345146,-0.170653 z"
       id="path1465"
       sodipodi:nodetypes="csssscsssscssscsssssscc" />
    <ellipse
       style="display:inline;opacity:0.551282;fill:#000000;fill-opacity:1;stroke:#535353;stroke-width:0.532171;stroke-linejoin:miter;stroke-miterlimit:4;stroke-dasharray:none;stroke-dashoffset:0;stroke-opacity:1"
       id="path4017"
       cx="26.031649"
       cy="34.686325"
       rx="0.65689886"
       ry="0.64858365" />
  </g>
  <g
     transform="matrix(1.0023412,0,0,0.9058051,-61.396464,37.24086)"
     style="font-style:normal;font-variant:normal;font-weight:normal;font-stretch:normal;font-size:37.4134px;line-height:125%;font-family:'Good Times';-inkscape-font-specification:'Good Times, Normal';text-align:start;letter-spacing:0px;word-spacing:0px;writing-mode:lr-tb;text-anchor:start;fill:#000000;fill-opacity:0.675079;stroke:none;stroke-width:1px;stroke-linecap:butt;stroke-linejoin:miter;stroke-opacity:1"
     id="text3348">
    <path
       d="m 128.26142,-1.5900734 z m 25.54602,0.1593692 V -18.21762 H 137.8248 v -6.002915 h 15.98264 v -15.99007 h 5.54588 v 38.7799008 z m -25.54602,0 V -40.210605 h 5.54589 v 38.7799008 z"
       style="font-style:normal;font-variant:normal;font-weight:normal;font-stretch:normal;font-size:37.4134px;line-height:125%;font-family:'Good Times';-inkscape-font-specification:'Good Times, Normal';text-align:start;writing-mode:lr-tb;text-anchor:start;fill:#000000;fill-opacity:0.675079"
       id="path4162"
       inkscape:connector-curvature="0" />
    <path
       d="m 162.71102,-1.5900734 z m 35.2404,0 -4.75987,-9.7215356 h -15.02193 l 2.62011,-5.471685 h 9.73806 l -7.07427,-14.449497 -14.41059,29.6427176 h -6.33191 l 18.25339,-36.9737126 q 0.48035,-1.00934 1.13538,-1.593695 0.65502,-0.584355 1.57206,-0.584355 0.91703,0 1.52839,0.584355 0.65502,0.584355 1.13538,1.593695 l 18.29706,36.9737126 z"
       style="font-style:normal;font-variant:normal;font-weight:normal;font-stretch:normal;font-size:37.4134px;line-height:125%;font-family:'Good Times';-inkscape-font-specification:'Good Times, Normal';text-align:start;writing-mode:lr-tb;text-anchor:start;fill:#000000;fill-opacity:0.675079"
       id="path4164"
       inkscape:connector-curvature="0" />
    <path
       d="m 195.6329,-1.5900734 z m 0,-38.6205316 h 6.76859 l 14.41059,29.748966 14.3669,-29.748966 h 6.37557 l -18.29704,36.9737147 q -0.48036,1.0093389 -1.13539,1.5936943 -0.65502,0.5843542 -1.5284,0.5843542 -0.91702,0 -1.57205,-0.5843542 -0.65503,-0.5843554 -1.13538,-1.5936943 z"
       style="font-style:normal;font-variant:normal;font-weight:normal;font-stretch:normal;font-size:37.4134px;line-height:125%;font-family:'Good Times';-inkscape-font-specification:'Good Times, Normal';text-align:start;writing-mode:lr-tb;text-anchor:start;fill:#000000;fill-opacity:0.675079"
       id="path4166"
       inkscape:connector-curvature="0" />
    <path
       d="m 240.92931,-1.5900734 z m 0,0 V -40.210605 h 28.34079 v 6.746641 h -22.83857 v 25.1272507 h 22.88224 v 6.7466399 z m 9.56338,-16.7869156 v -5.684177 h 17.59836 v 5.684177 z"
       style="font-style:normal;font-variant:normal;font-weight:normal;font-stretch:normal;font-size:37.4134px;line-height:125%;font-family:'Good Times';-inkscape-font-specification:'Good Times, Normal';text-align:start;writing-mode:lr-tb;text-anchor:start;fill:#000000;fill-opacity:0.675079"
       id="path4168"
       inkscape:connector-curvature="0" />
    <path
       d="m 273.97605,-1.5900734 z m 5.28388,-28.2615156 v 28.2615156 h -5.28388 V -36.651354 q 0,-1.85931 0.74237,-2.921772 0.78602,-1.115586 2.09608,-1.115586 0.61135,0 1.17904,0.318739 0.56769,0.318738 1.17906,1.062462 l 22.40188,27.039685 v -28.261517 h 5.28388 v 35.3800188 q 0,1.9124339 -0.78604,2.9748968 -0.74236,1.062463 -1.96507,1.062463 -1.35372,0 -2.53277,-1.4343253 z"
       style="font-style:normal;font-variant:normal;font-weight:normal;font-stretch:normal;font-size:37.4134px;line-height:125%;font-family:'Good Times';-inkscape-font-specification:'Good Times, Normal';text-align:start;writing-mode:lr-tb;text-anchor:start;fill:#000000;fill-opacity:0.675079"
       id="path4170"
       inkscape:connector-curvature="0" />
  </g>
  <g
     aria-label="SPECULATIVE"
     transform="matrix(1.4147227,0,0,1.4702394,-65.238124,-37.027332)"
     id="flowRoot4179"
     style="font-style:normal;font-variant:normal;font-weight:normal;font-stretch:normal;line-height:0.01%;font-family:'Good Times';-inkscape-font-specification:'Good Times, Normal';text-align:start;letter-spacing:0px;word-spacing:0px;writing-mode:lr-tb;text-anchor:start;fill:#1c3ed3;fill-opacity:1;stroke:none;stroke-width:1px;stroke-linecap:butt;stroke-linejoin:miter;stroke-opacity:1">
    <path
       d="m 93.905937,63.643203 v -1.905 h 8.175003 q 0.765,0 1.17,-0.39 0.42,-0.39 0.42,-1.035 0,-0.705 -0.42,-1.05 -0.405,-0.36 -1.17,-0.36 h -5.010003 q -0.765,0 -1.394999,-0.225 -0.615001,-0.24 -1.05,-0.645 -0.42,-0.42 -0.660001,-0.99 -0.225,-0.57 -0.225,-1.245 0,-0.66 0.21,-1.215 0.225001,-0.57 0.645001,-0.975 0.434999,-0.405 1.065,-0.63 0.629999,-0.24 1.439999,-0.24 h 7.830003 v 1.905 h -7.830003 q -0.659999,0 -1.019999,0.36 -0.36,0.345 -0.36,0.975 0,0.63 0.36,0.975 0.375,0.345 1.004999,0.345 h 4.995003 q 1.665,0 2.52,0.78 0.87,0.78 0.87,2.37 0,0.69 -0.21,1.275 -0.21,0.585 -0.63,1.02 -0.42,0.42 -1.065,0.66 -0.63,0.24 -1.485,0.24 z"
       style="font-size:15px;line-height:1.25"
       id="path54" />
    <path
       d="m 110.39092,60.613203 v -1.845 h 4.38 q 1.005,0 1.56,-0.57 0.57,-0.57 0.57,-1.5 0,-0.945 -0.57,-1.5 -0.555,-0.555 -1.56,-0.555 h -5.775 v 9 h -1.89 v -10.905 h 7.665 q 0.945,0 1.68,0.285 0.75,0.27 1.26,0.78 0.51,0.495 0.78,1.215 0.27,0.72 0.27,1.62 0,0.885 -0.27,1.62 -0.27,0.72 -0.78,1.245 -0.51,0.525 -1.26,0.825 -0.735,0.285 -1.68,0.285 z"
       style="font-size:15px;line-height:1.25"
       id="path56" />
    <path
       d="m 120.1109,63.643203 v -10.905 h 9.735 v 1.905 h -7.845 v 7.095 h 7.86 v 1.905 z m 3.285,-4.74 v -1.605 h 6.045 v 1.605 z"
       style="font-size:15px;line-height:1.25"
       id="path58" />
    <path
       d="m 136.47589,63.643203 q -1.14,0 -2.115,-0.42 -0.96,-0.435 -1.68,-1.17 -0.705,-0.75 -1.11,-1.77 -0.39,-1.02 -0.39,-2.205 0,-1.2 0.39,-2.19 0.405,-0.99 1.11,-1.68 0.72,-0.705 1.68,-1.08 0.975,-0.39 2.115,-0.39 h 5.91 v 1.905 h -5.91 q -0.735,0 -1.365,0.27 -0.615,0.255 -1.065,0.72 -0.45,0.465 -0.705,1.11 -0.255,0.645 -0.255,1.425 0,0.765 0.255,1.425 0.255,0.66 0.705,1.14 0.45,0.465 1.065,0.735 0.63,0.27 1.365,0.27 h 5.91 v 1.905 z"
       style="font-size:15px;line-height:1.25"
       id="path60" />
    <path
       d="m 153.68087,52.738203 h 1.86 v 6.09 q 0,1.26 -0.33,2.205 -0.33,0.93 -1.035,1.545 -0.705,0.615 -1.83,0.915 -1.11,0.3 -2.7,0.3 -1.575,0 -2.7,-0.3 -1.11,-0.3 -1.815,-0.915 -0.705,-0.615 -1.035,-1.545 -0.33,-0.945 -0.33,-2.205 v -6.09 h 1.965 v 6.09 q 0,0.825 0.195,1.41 0.21,0.585 0.66,0.96 0.465,0.375 1.23,0.555 0.765,0.165 1.89,0.165 1.125,0 1.89,-0.165 0.765,-0.18 1.215,-0.555 0.465,-0.375 0.66,-0.96 0.21,-0.585 0.21,-1.41 z"
       style="font-size:15px;line-height:1.25"
       id="path62" />
    <path
       d="m 157.26587,63.643203 v -10.905 h 1.905 v 9 h 7.335 v 1.905 z"
       style="font-size:15px;line-height:1.25"
       id="path64" />
    <path
       d="m 179.24085,63.643203 -1.635,-2.745 h -5.16 l 0.9,-1.545 h 3.345 l -2.43,-4.08 -4.95,8.37 h -2.175 l 6.27,-10.44 q 0.165,-0.285 0.39,-0.45 0.225,-0.165 0.54,-0.165 0.315,0 0.525,0.165 0.225,0.165 0.39,0.45 l 6.285,10.44 z"
       style="font-size:15px;line-height:1.25"
       id="path66" />
    <path
       d="m 184.2658,63.643203 v -9 h -4.14 v -1.905 h 10.185 v 1.905 h -4.14 v 9 z"
       style="font-size:15px;line-height:1.25"
       id="path68" />
    <path
       d="m 191.67579,63.643203 v -10.905 h 1.905 v 10.905 z"
       style="font-size:15px;line-height:1.25"
       id="path70" />
    <path
       d="m 194.84077,52.738203 h 2.325 l 4.95,8.4 4.935,-8.4 h 2.19 l -6.285,10.44 q -0.165,0.285 -0.39,0.45 -0.225,0.165 -0.525,0.165 -0.315,0 -0.54,-0.165 -0.225,-0.165 -0.39,-0.45 z"
       style="font-size:15px;line-height:1.25"
       id="path72" />
    <path
       d="m 210.41074,63.643203 v -10.905 h 9.735 v 1.905 h -7.845 v 7.095 h 7.86 v 1.905 z m 3.285,-4.74 v -1.605 h 6.045 v 1.605 z"
       style="font-size:15px;line-height:1.25"
       id="path74" />
  </g>
  <g
     id="g83"
     transform="matrix(0.10985888,0,0,0.11093387,-7.0793682,-6.6132723)">
    <path
       id="Unnamed #3-1"
       fill="none"
       stroke="#000000"
       stroke-width="1"
       d="m 358,337.33 c 7.67,-2.66 9.33,0.34 25.67,-15"
       style="stroke-width:4.82061;stroke-miterlimit:4;stroke-dasharray:none" />
    <path
       id="Unnamed #2-3"
       fill="none"
       stroke="#000000"
       stroke-width="1"
       d="m 332.13289,273.46676 c -0.0304,0.01 7.7e-4,0.002 -0.091,0.029 -22.31011,6.44592 -30.56877,9.16601 -50.04185,3.17429 6,11.5 14.17,27.16 10.67,37.66 -12.5,-6.5 -19.67,-20.5 -37.67,-13 5.5,10 12.83,29.34 7.33,42.34 -11.5,-9 -39.83,-33.5 -45.33,-21 7,9.5 3,28.66 -2,41.66 -7.5,-9.5 -17.67,-27.5 -37.67,-23 5,15 3,17.84 -9,30.34 -5,-12.5 -15,-17.5 -27,-20"
       style="stroke:#000000;stroke-width:7.23091;stroke-miterlimit:4;stroke-dasharray:none;stroke-opacity:1"
       sodipodi:nodetypes="csccccccccc" />
    <path
       id="Unnamed #3-1-0"
       fill="none"
       stroke="#000000"
       stroke-width="1"
       d="m 373.03964,358.22276 c 7.67,-2.66 9.33,0.34 25.67,-15"
       style="stroke-width:4.82061;stroke-miterlimit:4;stroke-dasharray:none" />
    <path
       id="Unnamed #3-1-02"
       fill="none"
       stroke="#000000"
       stroke-width="1"
       d="m 388.30981,379.68212 c 7.67,-2.66 9.33,0.34 25.67,-15"
       style="stroke-width:4.82061;stroke-miterlimit:4;stroke-dasharray:none" />
  </g>
  <g
     inkscape:groupmode="layer"
     id="layer3"
     inkscape:label="tusks"
     style="display:inline">
    <path
       id="Unnamed #1-5"
       fill="none"
       stroke="#000000"
       stroke-width="1"
       d="m 35.090653,44.073145 c 3.274964,-0.950388 11.863771,-1.848493 10.691578,-14.642497 -0.501047,-3.641012 -2.217886,-9.291602 -6.44832,-14.91898 -1.954474,-2.599872 -4.273797,-5.0804186 -7.889909,-6.0328231 3.500989,3.6510791 4.009297,4.0592751 5.796787,7.1595541 2.505092,4.344909 4.814672,9.191039 5.359457,14.563393 0.103795,2.809954 0.221679,4.372091 -0.981269,6.841233 -0.423892,0.87007 -2.197497,1.989374 -3.200934,2.4494 -1.003436,0.460027 -2.300073,0.723699 -3.975929,0.765106 M 50.883781,19.910448 C 49.400686,16.194163 43.567677,6.0016705 33.076154,3.5611247 34.833896,5.2805998 43.92013,11.272577 46.490737,17.373165"
       style="stroke-width:0.798257;stroke-miterlimit:4;stroke-dasharray:none"
       sodipodi:nodetypes="ccscscsscccc" />
    <path
       style="fill:none;stroke:#000000;stroke-width:0.581546;stroke-linecap:butt;stroke-linejoin:miter;stroke-miterlimit:4;stroke-dasharray:none;stroke-opacity:1"
       d="m 34.554027,37.484569 2.385997,1.386111 -2.951086,1.33696 2.250893,1.736347 -2.555133,1.200965 2.297249,1.474792 -2.766537,1.224436"
       id="path1345"
       sodipodi:nodetypes="ccccccc" />
    <ellipse
       style="opacity:0.551282;fill:#000000;fill-opacity:1;stroke:#535353;stroke-width:0.532171;stroke-linejoin:miter;stroke-miterlimit:4;stroke-dasharray:none;stroke-dashoffset:0;stroke-opacity:1"
       id="path3989"
       cx="26.024145"
       cy="34.6735"
       rx="0.65689886"
       ry="0.6402685" />
    <path
       id="Unnamed #4-3"
       fill="none"
       stroke="#000000"
       stroke-width="1"
       d="m 27.53227,32.989504 c -1.098588,-1.294598 -5.748914,-0.443736 -3.661596,3.25369 -0.04614,-0.356098 -0.430647,-0.992859 -0.10107,-0.715524 0.329577,0.277335 4.092243,1.427719 2.664078,-3.024057"
       style="stroke-width:0.532171;stroke-miterlimit:4;stroke-dasharray:none" />
  </g>
</svg>
